<svg width="267" height="171" viewBox="0 0 267 171" fill="none" xmlns="http://www.w3.org/2000/svg">
<g clip-path="url(#clip0_14_64)">
<path d="M37.1243 159.252C38.1502 158.207 39.471 157.684 41.0611 157.684C43.1899 157.684 44.7543 158.385 45.7289 159.787C46.2675 160.577 46.5625 161.367 46.6009 162.157H43.9208C43.7541 161.545 43.5361 161.087 43.2668 160.781C42.7923 160.233 42.087 159.953 41.1509 159.953C40.202 159.953 39.4454 160.348 38.894 161.125C38.3425 161.902 38.0732 163.011 38.0732 164.438C38.0732 165.865 38.3682 166.935 38.9453 167.649C39.5223 168.362 40.2661 168.719 41.1637 168.719C42.0742 168.719 42.7795 168.413 43.2668 167.802C43.5361 167.47 43.7541 166.986 43.9336 166.324H46.5881C46.3573 167.713 45.7802 168.834 44.8313 169.713C43.8823 170.58 42.6769 171.013 41.215 171.013C39.3941 171.013 37.9578 170.427 36.9191 169.254C35.8804 168.069 35.3546 166.451 35.3546 164.4C35.3418 162.17 35.9317 160.462 37.1243 159.252Z" fill="white"/>
<path d="M58.0652 169.522C57.0906 170.503 55.6929 171 53.8719 171C52.0381 171 50.6404 170.503 49.6786 169.522C48.3834 168.311 47.7294 166.553 47.7294 164.272C47.7294 161.94 48.3834 160.195 49.6786 159.022C50.6404 158.028 52.0381 157.544 53.8719 157.544C55.7057 157.544 57.1035 158.041 58.0652 159.022C59.3604 160.195 60.0016 161.94 60.0016 164.272C60.0016 166.553 59.3604 168.299 58.0652 169.522ZM56.3982 167.585C57.0265 166.808 57.3343 165.699 57.3343 164.272C57.3343 162.845 57.0265 161.749 56.3982 160.959C55.7826 160.182 54.9363 159.787 53.8719 159.787C52.8076 159.787 51.974 160.169 51.3328 160.946C50.7045 161.724 50.3839 162.832 50.3839 164.259C50.3839 165.687 50.7045 166.795 51.3328 167.572C51.9612 168.35 52.8076 168.732 53.8719 168.732C54.9363 168.745 55.7698 168.362 56.3982 167.585Z" fill="white"/>
<path d="M70.004 157.927H73.8511V170.643H71.3633V162.042C71.3633 161.787 71.3633 161.443 71.3761 160.997C71.3761 160.551 71.3889 160.207 71.3889 159.965L68.9653 170.643H66.3621L63.9512 159.965C63.9512 160.207 63.9513 160.551 63.9641 160.997C63.9641 161.443 63.9769 161.787 63.9769 162.042V170.643H61.4891V157.927H65.3875L67.7214 167.929L70.004 157.927Z" fill="white"/>
<path d="M85.2641 160.182H78.4932V162.883H84.6998V165.088H78.4932V168.362H85.5718V170.643H75.8772V157.927H85.2641V160.182Z" fill="white"/>
<path d="M95.3306 158.258C95.805 158.462 96.2026 158.755 96.536 159.15C96.8053 159.468 97.0233 159.825 97.1772 160.22C97.331 160.615 97.408 161.061 97.408 161.558C97.408 162.157 97.2541 162.756 96.9463 163.342C96.6386 163.928 96.1384 164.336 95.4332 164.578C96.023 164.82 96.4462 165.151 96.6899 165.585C96.9335 166.018 97.0618 166.68 97.0618 167.572V168.426C97.0618 169.012 97.0874 169.394 97.1387 169.611C97.2028 169.942 97.3695 170.184 97.6388 170.337V170.656H94.6894C94.6124 170.376 94.5483 170.146 94.5099 169.968C94.4457 169.611 94.4073 169.242 94.3944 168.872L94.3816 167.687C94.3688 166.872 94.2277 166.336 93.9584 166.069C93.6891 165.801 93.1762 165.661 92.4324 165.661H89.8164V170.643H87.2004V157.927H93.3301C94.1893 157.939 94.8561 158.054 95.3306 158.258ZM89.8036 160.131V163.546H92.6889C93.266 163.546 93.6891 163.482 93.9713 163.342C94.4714 163.1 94.7279 162.616 94.7279 161.915C94.7279 161.138 94.4842 160.628 93.9969 160.36C93.7276 160.207 93.3044 160.131 92.753 160.131H89.8036Z" fill="white"/>
<path d="M100.665 159.252C101.691 158.207 103.012 157.684 104.602 157.684C106.731 157.684 108.295 158.385 109.27 159.787C109.808 160.577 110.103 161.367 110.142 162.157H107.462C107.295 161.545 107.077 161.087 106.808 160.781C106.333 160.233 105.628 159.953 104.692 159.953C103.743 159.953 102.986 160.348 102.435 161.125C101.883 161.902 101.614 163.011 101.614 164.438C101.614 165.865 101.909 166.935 102.486 167.649C103.063 168.362 103.807 168.719 104.705 168.719C105.615 168.719 106.32 168.413 106.808 167.802C107.077 167.47 107.295 166.986 107.475 166.324H110.129C109.898 167.713 109.321 168.834 108.372 169.713C107.423 170.58 106.218 171.013 104.756 171.013C102.935 171.013 101.499 170.427 100.46 169.254C99.4213 168.069 98.8955 166.451 98.8955 164.4C98.8827 162.17 99.4726 160.462 100.665 159.252Z" fill="white"/>
<path d="M114.181 157.927H111.527V170.643H114.181V157.927Z" fill="white"/>
<path d="M126.017 169.522C125.043 170.503 123.645 171 121.824 171C119.99 171 118.593 170.503 117.631 169.522C116.336 168.311 115.682 166.553 115.682 164.272C115.682 161.94 116.336 160.195 117.631 159.022C118.593 158.028 119.99 157.544 121.824 157.544C123.658 157.544 125.056 158.041 126.017 159.022C127.313 160.195 127.954 161.94 127.954 164.272C127.954 166.553 127.3 168.299 126.017 169.522ZM124.338 167.585C124.966 166.808 125.274 165.699 125.274 164.272C125.274 162.845 124.966 161.749 124.338 160.959C123.722 160.182 122.876 159.787 121.811 159.787C120.747 159.787 119.913 160.169 119.272 160.946C118.644 161.724 118.323 162.832 118.323 164.259C118.323 165.687 118.644 166.795 119.272 167.572C119.901 168.35 120.747 168.732 121.811 168.732C122.876 168.745 123.722 168.362 124.338 167.585Z" fill="white"/>
<path d="M148.741 160.182H141.97V162.883H148.177V165.088H141.97V168.362H149.049V170.643H139.354V157.927H148.741V160.182Z" fill="white"/>
<path d="M153.55 170.643H150.446L154.563 164.17L150.639 157.927H153.845L156.127 162.068L158.461 157.927H161.564L157.64 164.055L161.808 170.643H158.551L156.127 166.311L153.55 170.643Z" fill="white"/>
<path d="M173.042 157.927V160.182H169.22V170.643H166.527V160.182H162.68V157.927H173.042Z" fill="white"/>
<path d="M184.455 160.182H177.671V162.883H183.89V165.088H177.671V168.362H184.762V170.643H175.068V157.927H184.455V160.182Z" fill="white"/>
<path d="M195.419 158.258C195.893 158.462 196.291 158.755 196.624 159.15C196.893 159.468 197.111 159.825 197.265 160.22C197.419 160.615 197.509 161.061 197.509 161.558C197.509 162.157 197.355 162.756 197.047 163.342C196.74 163.928 196.239 164.336 195.521 164.578C196.111 164.82 196.534 165.151 196.778 165.585C197.022 166.018 197.15 166.68 197.15 167.572V168.426C197.15 169.012 197.176 169.394 197.227 169.611C197.291 169.942 197.458 170.184 197.727 170.337V170.656H194.778C194.701 170.376 194.636 170.146 194.598 169.968C194.534 169.611 194.495 169.242 194.483 168.872L194.47 167.687C194.457 166.872 194.316 166.336 194.047 166.069C193.777 165.801 193.264 165.661 192.521 165.661H189.905V170.643H187.289V157.927H193.405C194.277 157.939 194.957 158.054 195.419 158.258ZM189.892 160.131V163.546H192.777C193.354 163.546 193.777 163.482 194.059 163.342C194.572 163.1 194.816 162.616 194.816 161.915C194.816 161.138 194.572 160.628 194.085 160.36C193.816 160.207 193.393 160.131 192.841 160.131H189.892Z" fill="white"/>
<path d="M202.882 157.927H200.228V170.643H202.882V157.927Z" fill="white"/>
<path d="M215.616 169.522C214.654 170.503 213.256 171 211.423 171C209.589 171 208.191 170.503 207.229 169.522C205.934 168.311 205.28 166.553 205.28 164.272C205.28 161.94 205.934 160.195 207.229 159.022C208.191 158.028 209.589 157.544 211.423 157.544C213.256 157.544 214.654 158.041 215.616 159.022C216.911 160.195 217.552 161.94 217.552 164.272C217.552 166.553 216.898 168.299 215.616 169.522ZM213.936 167.585C214.564 166.808 214.872 165.699 214.872 164.272C214.872 162.845 214.564 161.749 213.936 160.959C213.32 160.182 212.474 159.787 211.41 159.787C210.345 159.787 209.512 160.169 208.871 160.946C208.242 161.724 207.922 162.832 207.922 164.259C207.922 165.687 208.242 166.795 208.871 167.572C209.499 168.35 210.345 168.732 211.41 168.732C212.474 168.745 213.32 168.362 213.936 167.585Z" fill="white"/>
<path d="M228.17 158.258C228.645 158.462 229.042 158.755 229.376 159.15C229.645 159.468 229.863 159.825 230.017 160.22C230.171 160.615 230.248 161.061 230.248 161.558C230.248 162.157 230.094 162.756 229.786 163.342C229.478 163.928 228.978 164.336 228.273 164.578C228.863 164.82 229.286 165.151 229.529 165.585C229.773 166.018 229.901 166.68 229.901 167.572V168.426C229.901 169.012 229.927 169.394 229.978 169.611C230.042 169.942 230.209 170.184 230.478 170.337V170.656H227.529C227.452 170.376 227.388 170.146 227.349 169.968C227.285 169.611 227.247 169.242 227.234 168.872L227.221 167.687C227.208 166.872 227.067 166.336 226.798 166.069C226.529 165.801 226.016 165.661 225.272 165.661H222.656V170.643H220.04V157.927H226.157C227.029 157.939 227.696 158.054 228.17 158.258ZM222.643 160.131V163.546H225.528C226.106 163.546 226.529 163.482 226.811 163.342C227.311 163.1 227.567 162.616 227.567 161.915C227.567 161.138 227.324 160.628 226.836 160.36C226.567 160.207 226.144 160.131 225.593 160.131H222.643Z" fill="white"/>
<path d="M0 109.353H24.0571V115.559H6.97603V121.981H22.0053V128.186H6.97603V134.838H24.2879V141.043H0V109.353Z" fill="white"/>
<path d="M29.0198 125.294V125.205C29.0198 116.196 35.8548 108.818 45.652 108.818C51.6663 108.818 55.2697 110.806 58.2319 113.711L53.7693 118.834C51.3072 116.616 48.8066 115.253 45.6135 115.253C40.2404 115.253 36.3677 119.687 36.3677 125.115V125.205C36.3677 130.633 40.1507 135.169 45.6135 135.169C49.2554 135.169 51.4867 133.716 53.9873 131.461L58.4499 135.946C55.1671 139.438 51.5252 141.604 45.3699 141.604C35.9958 141.578 29.0198 134.392 29.0198 125.294Z" fill="white"/>
<path d="M63.464 127.46V109.353H70.4785V127.282C70.4785 132.442 73.0688 135.105 77.3519 135.105C81.635 135.105 84.2253 132.531 84.2253 127.498V109.353H91.2398V127.231C91.2398 136.825 85.8155 141.54 77.2493 141.54C68.6832 141.54 63.464 136.787 63.464 127.46Z" fill="white"/>
<path d="M96.8951 125.294V125.205C96.8951 116.196 103.73 108.818 113.527 108.818C119.542 108.818 123.145 110.806 126.094 113.711L121.632 118.834C119.17 116.616 116.669 115.253 113.476 115.253C108.103 115.253 104.23 119.687 104.23 125.115V125.205C104.23 130.633 108.013 135.169 113.476 135.169C117.118 135.169 119.349 133.716 121.863 131.461L126.325 135.946C123.042 139.438 119.4 141.604 113.245 141.604C103.871 141.578 96.8951 134.392 96.8951 125.294Z" fill="white"/>
<path d="M129.518 125.294V125.205C129.518 116.196 136.674 108.818 146.51 108.818C156.345 108.818 163.411 116.107 163.411 125.115V125.205C163.411 134.213 156.255 141.591 146.42 141.591C136.571 141.578 129.518 134.303 129.518 125.294ZM156.076 125.294V125.205C156.076 119.776 152.062 115.253 146.42 115.253C140.765 115.253 136.853 119.687 136.853 125.115V125.205C136.853 130.633 140.867 135.169 146.51 135.169C152.152 135.156 156.076 130.722 156.076 125.294Z" fill="white"/>
<path d="M169.554 109.353H177.119L185.506 122.758L193.88 109.353H201.446V141.043H194.47V120.35L185.506 133.882H185.314L176.427 120.49V141.043H169.554V109.353Z" fill="white"/>
<path d="M209.012 109.353H233.056V115.559H215.975V121.981H231.004V128.186H215.975V134.838H233.287V141.043H209.012V109.353Z" fill="white"/>
<path d="M239.442 109.353H254.022C258.075 109.353 261.217 110.487 263.32 112.564C265.102 114.336 266.051 116.82 266.051 119.802V119.891C266.051 125.001 263.268 128.225 259.216 129.715L267 141.03H258.806L251.971 130.888H246.457V141.03H239.442V109.353ZM253.561 124.746C256.972 124.746 258.934 122.937 258.934 120.261V120.171C258.934 117.19 256.844 115.648 253.42 115.648H246.457V124.746H253.561Z" fill="white"/>
<path d="M110.719 73.4841C105.333 67.4698 102.063 59.5569 102.063 50.8795C102.063 50.0385 102.101 49.1975 102.166 48.3693L85.2897 38.9528C85.0332 40.9024 84.6742 43.6037 84.6742 45.6297C84.6742 70.5789 105.769 90.6223 130.878 90.6223C148.241 90.6223 162.937 81.6773 170.592 67.4443L166.207 67.1258C160.333 77.4724 149.113 84.8884 136.302 84.8884C126.12 84.9011 116.99 80.4923 110.719 73.4841Z" fill="white"/>
<path d="M129.813 0C113.309 0 99.3187 8.12951 91.3424 21.1902L95.1382 23.7387C101.14 13.9145 112.001 6.94449 124.414 6.94449C134.596 6.94449 144.188 11.3151 150.459 18.3233C155.845 24.3376 160.038 32.6837 160.038 41.3611C160.038 43.9733 160.295 46.2286 159.731 48.6751L168.694 50.0003C169.066 50.0513 169.425 50.0895 169.797 50.115L176.106 50.51C176.299 48.8153 176.35 46.9422 176.35 45.1965C176.337 20.2346 154.935 0 129.813 0Z" fill="white"/>
<path d="M190.315 59.5824C190.315 59.5824 187.045 59.9137 181.505 59.85C165.36 59.6206 127.364 54.6385 74.3768 17.7753C74.2229 17.6734 74.0562 17.5969 73.8767 17.546C73.0047 17.3548 69.6706 16.3482 67.6444 16.4119C66.6314 16.4501 66.2339 17.7499 67.0417 18.3615C77.0826 25.9431 130.108 68.0305 195.675 60.64C195.752 60.6273 195.957 60.589 196.086 60.4999C196.252 60.3979 196.342 60.245 196.342 60.1431C196.355 59.9137 195.098 59.3276 194.495 59.2893C194.239 59.2639 190.751 59.5187 190.315 59.5824Z" fill="white"/>
<path d="M186.84 72.6304C186.84 73.6625 186.583 74.6054 186.057 75.4974C185.545 76.3766 184.839 77.0774 183.942 77.5871C183.044 78.0968 182.082 78.3516 181.043 78.3516C180.005 78.3516 179.043 78.0968 178.145 77.5871C177.248 77.0774 176.542 76.3766 176.029 75.4974C175.517 74.6182 175.247 73.6625 175.247 72.6304C175.247 71.611 175.504 70.6426 176.029 69.7634C176.542 68.8842 177.248 68.1834 178.145 67.661C179.043 67.1513 180.005 66.8964 181.043 66.8964C182.082 66.8964 183.044 67.1513 183.942 67.661C184.839 68.1706 185.545 68.8715 186.057 69.7634C186.583 70.6426 186.84 71.5983 186.84 72.6304ZM185.647 72.6431C185.647 71.3689 185.198 70.2858 184.301 69.4066C183.403 68.5147 182.326 68.0814 181.069 68.0814C179.8 68.0814 178.71 68.5274 177.812 69.4066C176.914 70.2858 176.465 71.3562 176.465 72.6177C176.465 73.4204 176.671 74.1849 177.081 74.873C177.479 75.5738 178.043 76.1218 178.761 76.5295C179.479 76.9373 180.248 77.1411 181.069 77.1411C181.89 77.1411 182.646 76.9373 183.365 76.5295C184.083 76.1345 184.647 75.5866 185.057 74.8858C185.442 74.1849 185.647 73.4459 185.647 72.6431ZM178.658 69.4958H181.454C182.044 69.4958 182.48 69.5595 182.762 69.687C183.031 69.8144 183.262 70.0183 183.429 70.2986C183.595 70.5789 183.685 70.923 183.685 71.318C183.685 71.6493 183.634 71.9296 183.531 72.1335C183.429 72.3501 183.236 72.5539 182.941 72.7578C183.172 72.8852 183.326 73.0382 183.416 73.1911C183.506 73.3567 183.557 73.637 183.57 74.0448C183.608 74.8221 183.634 75.2808 183.672 75.4082C183.711 75.5356 183.788 75.663 183.942 75.7777H182.351C182.275 75.6121 182.236 75.4719 182.21 75.3445C182.185 75.2298 182.172 75.0387 182.172 74.7456C182.159 74.1849 182.121 73.8536 182.082 73.7135C182.031 73.5861 181.954 73.4841 181.839 73.4204C181.723 73.3567 181.492 73.3185 181.159 73.3185H180.03V75.7522H178.645V69.4958H178.658ZM180.043 70.7063V72.1972H181.21C181.659 72.1972 181.954 72.1335 182.095 72.0188C182.249 71.9041 182.313 71.713 182.313 71.4454C182.313 71.1778 182.236 70.9867 182.095 70.872C181.954 70.7573 181.659 70.7063 181.21 70.7063H180.043Z" fill="white"/>
</g>
<defs>
<clipPath id="clip0_14_64">
<rect width="267" height="171" fill="white"/>
</clipPath>
</defs>
</svg>
