<svg width="707" height="476" viewBox="0 0 707 476" fill="none" xmlns="http://www.w3.org/2000/svg">
<g clip-path="url(#clip0_14_194)">
<path d="M141.13 411.92C148.57 354.5 134.06 265.92 120.58 201.72C105.99 132.21 89.43 75.52 89.26 74.95L86.96 75.62C87.13 76.18 103.66 132.8 118.24 202.22C131.68 266.23 146.14 354.52 138.75 411.6L141.13 411.92Z" fill="url(#paint0_linear_14_194)"/>
<path d="M63.78 449.87C64 449.87 64.21 449.82 64.42 449.72C65.15 449.36 65.46 448.48 65.1 447.75C17.14 348.92 3.06999 234.26 2.93999 233.11C2.83999 232.3 2.10999 231.72 1.29999 231.82C0.489994 231.92 -0.0900055 232.65 0.00999447 233.46C0.149994 234.61 14.27 349.76 62.45 449.04C62.71 449.57 63.23 449.87 63.78 449.87Z" fill="url(#paint1_linear_14_194)"/>
<path d="M86.56 424.67C86.78 424.67 87.01 424.56 87.14 424.36C110.41 390.4 118.34 364.16 110.72 346.38C103.95 330.56 86.84 327.62 86.67 327.59C86.29 327.53 85.92 327.79 85.86 328.17C85.8 328.55 86.06 328.92 86.44 328.98C86.6 329.01 102.97 331.84 109.43 346.95C116.83 364.27 108.94 390.04 85.97 423.57C85.75 423.89 85.83 424.33 86.15 424.55C86.29 424.63 86.43 424.67 86.56 424.67Z" fill="#F0F0F0"/>
<path d="M55.58 83.75C37.94 84.15 23.85 98.56 23.85 116.2V410.52C23.85 434.73 43.14 454.53 67.35 455.16C174.85 457.93 550.84 464.65 653.17 463.15C670.76 462.89 685.01 448.82 685.51 431.23C687.48 362.85 690.69 198.44 678.83 122.1C676.33 106.02 662.76 94 646.5 93.48C556.44 90.6 157.87 81.45 55.58 83.75Z" fill="url(#paint2_linear_14_194)"/>
<path d="M42.32 114.77V394.4C42.32 408.54 53.67 420.05 67.8 420.27L638.45 427.32C652.46 427.53 663.95 416.26 664 402.24L664.95 125.11C664.99 115.09 657 106.88 646.99 106.63L62.76 94.83C51.55 94.55 42.32 103.56 42.32 114.77Z" fill="#808285"/>
<path d="M668.3 438.69H668.29L42.31 428.02C41.92 428.01 41.61 427.69 41.62 427.3C41.63 426.91 41.93 426.6 42.34 426.61L668.32 437.28C668.71 437.29 669.02 437.61 669.01 438C669 438.38 668.68 438.69 668.3 438.69Z" fill="url(#paint3_linear_14_194)"/>
<path d="M575.48 311.62C576.92 313.03 616.39 309.42 632.97 313.75C632.97 313.75 645.82 242.98 608.92 240.2C572.01 237.42 559.22 266.16 559.22 266.16L575.48 311.62Z" fill="url(#paint4_linear_14_194)"/>
<path d="M522.68 236.86L614.07 240.19C614.07 240.19 580.77 240.65 584.46 282.76C588.15 324.88 606.91 447.86 559.26 447.98C511.6 448.1 510.84 426.33 510.84 426.33L522.68 236.86Z" fill="#8093CA"/>
<path d="M491.38 217.1L526.7 208.88C526.7 208.88 550.32 206.76 553.51 227.75C556.7 248.74 555.78 373.11 554.78 398.76C553.78 424.41 556.19 444.14 570.62 447.99L465.61 449.81L491.38 217.1Z" fill="url(#paint5_linear_14_194)"/>
<path d="M478.44 452.17C478.44 452.17 484.79 363.07 526.12 294.02C533.71 281.33 552.92 284.97 555.31 299.56C562.26 341.99 559.77 413.59 478.44 452.17Z" fill="#BECEEB"/>
<path d="M542.33 300.73C541.84 307.43 540.87 314.03 539.75 320.63C538.59 327.22 537.22 333.77 535.62 340.27C532.42 353.26 528.41 366.08 523.48 378.55C520.99 384.77 518.36 390.95 515.41 396.97C513.98 400 512.38 402.96 510.85 405.94C509.22 408.88 507.64 411.83 505.88 414.69C499.07 426.24 491.08 437.13 481.97 446.92C481.7 447.21 481.24 447.23 480.95 446.96C480.68 446.7 480.64 446.28 480.87 445.99L480.88 445.98C488.99 435.47 496.29 424.42 502.63 412.82C504.26 409.95 505.72 406.98 507.27 404.07C508.72 401.1 510.23 398.16 511.57 395.15C512.25 393.64 512.98 392.16 513.63 390.65L515.62 386.11C516.27 384.59 516.89 383.06 517.52 381.53C518.16 380.01 518.76 378.47 519.36 376.93C520.59 373.86 521.74 370.76 522.89 367.66C523.99 364.54 525.09 361.43 526.12 358.28C528.24 352.02 530.13 345.67 531.95 339.3C533.73 332.92 535.39 326.51 536.88 320.05C538.4 313.6 539.75 307.09 540.89 300.57V300.55C540.96 300.16 541.33 299.89 541.73 299.96C542.11 300.03 542.36 300.36 542.33 300.73Z" fill="#DCE4F5"/>
<path d="M495.67 442.98C495.67 442.98 539.49 352.38 595.12 346.23C596.11 346.12 596.95 346.96 596.82 347.94C595.42 359.4 583.91 419.82 495.67 442.98Z" fill="#95B0DD"/>
<path d="M584.5 360.92C581.43 364.76 578.24 368.47 575.01 372.15C573.37 373.97 571.73 375.79 570.08 377.59C568.4 379.38 566.75 381.18 565.06 382.95C558.3 390.04 551.29 396.89 544.06 403.5C540.48 406.84 536.74 410.01 533.06 413.25L527.41 417.95C526.47 418.73 525.53 419.52 524.58 420.29L521.69 422.56C514.06 428.71 506.01 434.33 497.9 439.81C497.62 440 497.23 439.93 497.04 439.64C496.85 439.36 496.92 438.98 497.19 438.79L497.21 438.78L503.18 434.55L506.17 432.43C507.15 431.71 508.12 430.96 509.09 430.23L514.94 425.83C516.86 424.33 518.76 422.79 520.67 421.27L523.53 418.99L526.34 416.64L531.95 411.94C535.6 408.7 539.31 405.53 542.87 402.19C546.48 398.91 550 395.53 553.53 392.15L558.74 387L563.87 381.78C565.58 380.04 567.24 378.25 568.93 376.49C570.6 374.71 572.25 372.92 573.9 371.12C577.18 367.52 580.44 363.87 583.55 360.13L583.56 360.12C583.78 359.86 584.17 359.82 584.43 360.04C584.67 360.28 584.71 360.66 584.5 360.92Z" fill="#DCE4F5"/>
<path d="M419.56 218.81C419.56 218.81 483.88 222.34 526.7 208.88C526.7 208.88 498.24 206.93 498.24 272.65C498.24 322.89 505.69 418.8 499.19 437C492.68 455.2 468.36 479.68 433.48 458.65C398.6 437.61 419.56 218.81 419.56 218.81Z" fill="#8093CA"/>
<path d="M416.08 53.88C416.08 53.88 499.27 67.3 510.78 53.67C510.78 53.67 503.52 27.71 477.97 28.1C452.42 28.49 416.08 53.88 416.08 53.88Z" fill="url(#paint6_linear_14_194)"/>
<path d="M187.84 21.03C162.04 21.3 141.55 42.82 142.52 68.61C145.6 150.97 152.02 325.17 154.34 409.99C154.86 428.9 169.19 444.55 187.98 446.73C254.91 454.49 405.61 470.62 464.01 465.82C451.06 458.59 443.39 444.58 444.27 429.78L466.82 50.88C467.62 37.49 481.45 28.55 493.75 33.9C501.5 37.27 507.16 43.88 510.77 53.68C506.11 37.44 498.1 25.33 477.96 28.11C477.97 28.1 282.8 20.03 187.84 21.03Z" fill="url(#paint7_linear_14_194)"/>
<path d="M150.63 69.61C152.91 48.12 171.16 31.89 192.77 32.16L455.41 35.54C440.49 115.02 436.68 278.25 432.55 439.09C432.31 448.63 437.45 457.48 445.85 462C445.85 462 270.91 455.03 196.07 445.84C178.45 443.68 164.71 429.55 162.98 411.88C156.2 342.53 140.66 163.47 150.63 69.61Z" fill="#95B0DD"/>
<path d="M183.76 98.73C221.82 99.8 367.94 103.75 404.84 104.74C409.49 104.87 413.19 107.85 413.01 111.33C412.84 114.64 409.2 117.18 404.77 117.08L183.79 111.87C179.53 111.77 175.98 109.26 175.6 106.07L175.5 105.26C175.06 101.63 178.89 98.6 183.76 98.73Z" fill="url(#paint8_linear_14_194)"/>
<path d="M179.38 137.32C179.98 138.16 181.14 138.71 182.4 138.76L334.05 144.08C335.95 144.15 337.54 143.06 337.61 141.64L337.99 134.16C338.07 132.67 336.48 131.4 334.49 131.36L186.98 127.91C180.42 127.75 176.24 132.92 179.38 137.32Z" fill="url(#paint9_linear_14_194)"/>
<path d="M180.03 166.35C218.09 167.42 364.21 171.37 401.11 172.36C405.76 172.49 409.46 175.47 409.28 178.95C409.11 182.26 405.47 184.8 401.04 184.7L180.06 179.49C175.8 179.39 172.25 176.88 171.87 173.69L171.77 172.88C171.34 169.25 175.16 166.21 180.03 166.35Z" fill="url(#paint10_linear_14_194)"/>
<path d="M175.66 204.93C176.26 205.77 177.42 206.32 178.68 206.37L330.33 211.69C332.23 211.76 333.82 210.67 333.89 209.25L334.27 201.77C334.35 200.28 332.76 199.01 330.77 198.97L183.26 195.52C176.69 195.36 172.51 200.54 175.66 204.93Z" fill="url(#paint11_linear_14_194)"/>
<path d="M193.83 327.91C195.13 311.38 200.73 295.17 209.53 280.96C213.95 273.86 219.15 267.21 225.1 261.28C226.63 259.84 228.12 258.35 229.68 256.95C231.29 255.6 232.86 254.19 234.5 252.88C236.18 251.62 237.85 250.33 239.58 249.12L242.22 247.38L243.54 246.51L244.2 246.08C244.44 245.93 244.76 245.74 245.05 245.59C249.69 243.03 256.34 242.91 260.83 247.43C261.92 248.51 262.69 249.82 263.25 251.1C263.51 251.74 263.76 252.4 263.91 253.03C264.1 253.68 264.21 254.3 264.32 254.93C264.72 257.43 264.6 259.76 264.37 262.01C264.25 263.13 264.07 264.23 263.87 265.31L263.27 268.34C262.88 270.36 262.43 272.37 261.99 274.39C261.1 278.41 260.09 282.41 259.04 286.39C254.74 302.3 249.04 317.83 242 332.72L239.3 338.28C238.36 340.11 237.43 341.95 236.47 343.77L235.01 346.49L234.28 347.85L233.47 349.27C232.36 351.16 231.11 352.99 229.66 354.74C228.2 356.48 226.56 358.15 224.51 359.55C222.48 360.94 219.91 362.06 217.07 362.2C216.37 362.27 215.66 362.2 214.96 362.12C214.25 362.08 213.59 361.85 212.92 361.69C211.58 361.33 210.3 360.68 209.18 359.88C206.93 358.28 205.31 356.07 204.3 353.68C203.33 351.32 202.91 348.86 202.89 346.48C202.86 344.09 203.22 341.81 203.71 339.67C204.21 337.52 204.83 335.5 205.52 333.53L206.53 330.55L207.67 327.62C210.73 319.82 214.77 312.44 219.5 305.56C224.21 298.66 229.77 292.37 235.89 286.71L237.03 285.64L238.22 284.63L240.61 282.61C241.42 281.96 242.26 281.33 243.08 280.69C243.91 280.06 244.72 279.4 245.59 278.82C247.3 277.63 248.99 276.41 250.77 275.33L252.09 274.5L252.75 274.08C252.87 274.01 252.95 273.95 253.1 273.87L253.54 273.63C254.72 273.01 256 272.6 257.33 272.46C259.97 272.15 262.83 272.93 264.88 274.81C265.94 275.74 266.79 277.08 267.17 278.46C267.58 279.84 267.56 281.17 267.44 282.37C267.31 283.57 267.06 284.67 266.78 285.71L265.95 288.67L264.3 294.54C262.12 302.37 259.85 310.18 257.63 318.01L257.62 318.03L254.19 317.42C254.45 314.79 255.15 312.13 256.61 309.74C257.35 308.56 258.25 307.46 259.39 306.54C260.53 305.61 261.84 304.96 263.23 304.55C264.63 304.16 266.12 304.02 267.61 304.26C268.35 304.38 269.1 304.59 269.8 304.92C270.16 305.07 270.49 305.27 270.82 305.47L271.51 305.91C273.19 306.86 275.29 307.03 277.01 306.27C277.45 306.1 277.85 305.85 278.22 305.57C278.4 305.42 278.59 305.28 278.75 305.11L279.01 304.86L279.32 304.53L281.82 301.86L286.82 296.52L291.82 291.18L294.32 288.51C294.93 287.86 295.82 287.29 296.8 287.1C297.78 286.89 298.8 287.03 299.66 287.42C300.53 287.81 301.28 288.46 301.79 289.29C302.3 290.13 302.53 291.18 302.41 292.14C302.4 292.39 302.34 292.62 302.28 292.84C302.22 293.05 302.14 293.33 302.1 293.44L301.8 294.28L301.23 295.98C300.49 298.25 299.87 300.55 299.36 302.88C298.85 305.21 298.44 307.56 298.14 309.92C298.11 310.21 298.06 310.52 298.04 310.8L298.02 311.52C297.99 311.76 298.03 312 298.07 312.23C298.12 312.46 298.09 312.71 298.18 312.93C298.38 313.85 298.87 314.67 299.47 315.39C300.07 316.12 300.9 316.66 301.78 317.03C302.21 317.24 302.69 317.32 303.15 317.44C303.62 317.48 304.09 317.55 304.56 317.49C305.49 317.42 306.42 317.17 307.21 316.64L307.52 316.47L307.8 316.24L308.37 315.78L309.66 314.51C313.1 311.13 316.4 307.6 319.52 303.92C325.76 296.56 331.35 288.64 336.18 280.29L337.95 277.14L338.81 275.55L339.24 274.75L339.35 274.55C339.36 274.53 339.35 274.54 339.35 274.54C339.36 274.54 339.34 274.56 339.35 274.58C339.35 274.71 339.4 274.74 339.39 274.73C339.39 274.73 339.42 274.75 339.47 274.74C339.52 274.73 339.59 274.72 339.59 274.7C339.59 274.7 339.59 274.7 339.58 274.7L339.43 274.86L339.12 275.17C338.91 275.38 338.71 275.59 338.51 275.8C338.11 276.22 337.72 276.66 337.33 277.1C335.8 278.88 334.41 280.77 333.19 282.77C332.58 283.77 332 284.79 331.47 285.84C331.21 286.36 330.95 286.89 330.7 287.42L330.34 288.22L330.16 288.62L330.04 288.98C329.35 290.87 329.33 292.95 330.2 294.75C331.04 296.53 332.58 298.04 334.45 298.72C335.36 299.13 336.36 299.21 337.33 299.23C338.3 299.14 339.29 298.98 340.2 298.52L340.89 298.2L341.66 297.75C342.18 297.45 342.7 297.16 343.21 296.84C344.23 296.22 345.24 295.58 346.24 294.92C354.23 289.64 361.38 283.11 367.33 275.62C367.93 274.86 369.03 274.74 369.79 275.34C370.55 275.94 370.67 277.04 370.07 277.8C363.88 285.59 356.46 292.38 348.16 297.85C347.12 298.53 346.07 299.2 345.01 299.84C344.48 300.17 343.94 300.47 343.41 300.79L342.6 301.26L341.63 301.72C340.35 302.36 338.89 302.64 337.44 302.74C335.99 302.73 334.51 302.56 333.17 301.99C330.44 300.98 328.24 298.84 327 296.22C325.73 293.6 325.74 290.42 326.74 287.76L326.91 287.25L327.1 286.82L327.49 285.95C327.75 285.37 328.03 284.81 328.32 284.24C328.9 283.11 329.52 282.01 330.18 280.93C331.5 278.77 333 276.72 334.66 274.8C335.08 274.32 335.5 273.85 335.93 273.39C336.15 273.16 336.36 272.93 336.59 272.7L336.92 272.36L337.09 272.19C337.2 272.09 337.32 271.99 337.43 271.9C337.91 271.53 338.56 271.24 339.23 271.22C339.89 271.19 340.53 271.35 341.06 271.65C342.11 272.22 342.9 273.45 342.8 274.82C342.77 275.14 342.71 275.48 342.59 275.75C342.54 275.89 342.47 276.04 342.41 276.16L342.3 276.36L341.86 277.17L340.99 278.8L339.18 282.02C334.24 290.55 328.53 298.64 322.15 306.16C318.96 309.92 315.59 313.53 312.07 316.98L310.75 318.27L309.9 318.97L309.47 319.31L308.99 319.6C307.74 320.41 306.24 320.84 304.75 320.95C304 321.03 303.26 320.94 302.52 320.86C301.8 320.7 301.07 320.54 300.39 320.23C299.03 319.66 297.76 318.82 296.8 317.67C295.83 316.54 295.07 315.19 294.74 313.72C294.62 313.36 294.62 312.98 294.55 312.62C294.5 312.25 294.45 311.88 294.48 311.51L294.52 310.4L294.63 309.46C294.94 306.98 295.36 304.52 295.9 302.09C296.44 299.66 297.09 297.25 297.86 294.87L298.45 293.1L298.76 292.22C298.83 292.04 298.82 292.02 298.84 291.94C298.86 291.87 298.89 291.8 298.88 291.75C298.91 291.5 298.87 291.3 298.75 291.09C298.63 290.89 298.41 290.7 298.17 290.59C297.65 290.39 297.27 290.46 296.83 290.89L294.33 293.56L289.33 298.9L284.33 304.24L281.83 306.91L281.52 307.24L281.13 307.63C280.87 307.9 280.57 308.13 280.28 308.36C279.68 308.8 279.03 309.2 278.33 309.48C275.56 310.69 272.3 310.39 269.74 308.94L268.88 308.41C268.69 308.3 268.5 308.18 268.29 308.1C267.89 307.91 267.45 307.78 266.99 307.71C266.07 307.55 265.08 307.64 264.13 307.91C262.21 308.45 260.63 309.76 259.53 311.56C258.44 313.35 257.83 315.52 257.62 317.73L254.19 317.12V317.1C256.16 309.21 258.08 301.31 260.09 293.43L261.58 287.52L262.32 284.59C262.54 283.66 262.72 282.76 262.78 281.94C262.84 281.12 262.8 280.37 262.6 279.81C262.41 279.24 262.11 278.8 261.64 278.4C260.65 277.55 259.23 277.17 257.85 277.38C257.16 277.47 256.48 277.71 255.87 278.06L255.64 278.19L255.34 278.38L254.72 278.79L253.48 279.62C251.81 280.69 250.23 281.89 248.64 283.07C247.83 283.64 247.08 284.29 246.31 284.91C245.54 285.54 244.77 286.15 244.01 286.79L241.79 288.77L240.68 289.76L239.61 290.79C233.88 296.26 228.7 302.31 224.35 308.92C219.98 315.51 216.27 322.54 213.51 329.94L212.48 332.71L211.57 335.52C210.95 337.4 210.4 339.28 210.01 341.1C209.21 344.73 209.18 348.22 210.41 351.06C211 352.41 211.92 353.56 213.01 354.3C213.56 354.67 214.12 354.96 214.75 355.1C215.38 355.26 216 355.36 216.62 355.3C217.85 355.23 219.17 354.72 220.48 353.81C221.78 352.91 223.03 351.66 224.17 350.27C225.31 348.88 226.35 347.33 227.28 345.71L227.97 344.47L228.67 343.14L230.07 340.48C230.99 338.7 231.88 336.9 232.78 335.11L235.36 329.67C242.07 315.09 247.59 299.96 251.74 284.46C252.76 280.58 253.73 276.69 254.58 272.77C255 270.81 255.44 268.85 255.81 266.88L256.39 263.93C256.56 263 256.7 262.1 256.8 261.2C256.98 259.41 257.04 257.64 256.78 256.12C256.53 254.6 256.03 253.37 255.33 252.69C255.01 252.3 254.56 252.06 254.06 251.8C253.5 251.6 252.93 251.38 252.3 251.35C251.07 251.24 249.71 251.53 248.49 252.18C248.33 252.27 248.21 252.33 248.02 252.45L247.4 252.85L246.17 253.65L243.71 255.25C242.09 256.35 240.55 257.57 238.95 258.7C237.39 259.89 235.9 261.17 234.37 262.4C232.88 263.68 231.47 265.04 230.01 266.36C224.36 271.83 219.24 277.88 214.84 284.44C206 297.54 199.92 312.57 197.23 328.34C197.07 329.29 196.17 329.94 195.21 329.78C194.39 329.62 193.77 328.8 193.83 327.91Z" fill="url(#paint12_linear_14_194)"/>
<path d="M375.93 274.7C375.35 274.7 374.78 274.41 374.45 273.88C373.94 273.06 374.18 271.98 375 271.47L392.48 260.52C393.3 260.01 394.38 260.25 394.89 261.07C395.4 261.89 395.15 262.97 394.34 263.48L376.86 274.43C376.57 274.62 376.24 274.7 375.93 274.7Z" fill="white"/>
<path d="M489.88 362.26C489.4 362.26 489.01 361.88 489.01 361.4C489.01 361.37 488.94 357.96 488.62 346.27C488.61 345.79 488.99 345.38 489.47 345.37C489.95 345.35 490.36 345.74 490.37 346.22C490.7 357.92 490.76 361.33 490.76 361.37C490.77 361.85 490.38 362.25 489.9 362.26C489.89 362.26 489.89 362.26 489.88 362.26Z" fill="white"/>
<path d="M489.1 333.73C488.63 333.73 488.24 333.36 488.23 332.88C488 325.27 487.63 316.86 487.25 307.96C486.73 295.93 486.2 283.49 485.91 271.51C485.16 239.95 490.35 227.86 494.83 223.28C497.22 220.83 499.19 220.76 499.41 220.76C499.89 220.76 500.29 221.15 500.29 221.64C500.29 222.12 499.91 222.51 499.43 222.52C499.21 222.53 486.54 223.73 487.67 271.48C487.95 283.45 488.49 295.88 489.01 307.9C489.39 316.81 489.76 325.23 489.99 332.85C490 333.33 489.63 333.74 489.14 333.75C489.11 333.73 489.11 333.73 489.1 333.73Z" fill="url(#paint13_linear_14_194)"/>
<path d="M580.68 330.18C580.22 330.18 579.84 329.82 579.81 329.36C579.79 329.07 578.07 300.56 574.98 276.82C571.8 252.36 585.12 247.23 585.69 247.02C586.14 246.85 586.65 247.09 586.81 247.54C586.97 247.99 586.74 248.49 586.29 248.66C585.77 248.85 573.73 253.62 576.71 276.59C579.81 300.39 581.53 328.97 581.55 329.25C581.58 329.73 581.21 330.15 580.73 330.18C580.71 330.18 580.7 330.18 580.68 330.18Z" fill="url(#paint14_linear_14_194)"/>
<path d="M599.8 473.61C603.98 473.97 611.22 474.56 616.94 474.81C620.37 474.96 622.35 474.62 623.49 474.17C623.49 474.3 623.48 474.42 623.48 474.53C623.45 475.13 622.96 475.61 622.36 475.65C611.56 476.25 602.98 475.86 599.92 475.67C599.29 475.63 598.91 474.94 599.23 474.41C599.39 474.13 599.58 473.87 599.8 473.61Z" fill="url(#paint15_linear_14_194)"/>
<path d="M616.93 474.81C611.22 474.56 603.97 473.97 599.79 473.61C603.9 468.57 616.93 465.18 616.93 465.18H620.61C623.14 468.83 623.51 472.3 623.48 474.17C622.35 474.62 620.37 474.96 616.93 474.81Z" fill="url(#paint16_linear_14_194)"/>
<path d="M621.24 459.17L620.9 465.99C620.86 466.73 620.31 467.35 619.57 467.45C618.83 467.56 617.85 467.57 616.8 467.22C616.16 467.01 615.68 466.46 615.56 465.8L614.37 459.16H621.24V459.17Z" fill="url(#paint17_linear_14_194)"/>
<path d="M669.05 474.76C670.86 474.51 671.68 473.57 672.02 472.56C672.02 472.57 672.02 472.58 672.03 472.59C672.3 473.65 671.68 474.75 670.44 475.27C668.95 475.9 667.32 476.01 666.05 475.96C664.69 475.9 663.44 475.34 662.76 474.44L662.75 474.43C664.11 475.1 666.03 475.18 669.05 474.76Z" fill="url(#paint18_linear_14_194)"/>
<path d="M660.51 459.12H663.55C668.17 459.03 671.08 468.78 672.03 472.55C671.69 473.56 670.87 474.5 669.06 474.75C666.04 475.17 664.12 475.09 662.76 474.42C660.26 471.13 659.02 466.32 658.43 463.51C657.74 460.32 660.51 459.12 660.51 459.12Z" fill="url(#paint19_linear_14_194)"/>
<path d="M663.15 452.8L664.84 459.5C665.05 460.32 664.65 461.17 663.89 461.56C662.95 462.04 661.62 462.55 660.4 462.41C659.83 462.34 659.35 461.94 659.16 461.4L656.69 454.35L663.15 452.8Z" fill="url(#paint20_linear_14_194)"/>
<path d="M665.16 454.73C663.06 456.59 656.24 456.84 656.24 456.84C631.67 397.87 621.62 389.49 621.62 389.49C625.17 411.75 622.19 461.03 622.19 461.03C618.14 462.82 612.91 461.03 612.91 461.03C612.58 424.59 606.98 392.81 600.36 367.75C616.97 367.38 625.8 361.69 628.68 359.41C642.53 381.73 665.16 454.73 665.16 454.73Z" fill="url(#paint21_linear_14_194)"/>
<path d="M624.47 291.59C627.61 307.27 626.49 335.33 625.75 348.13C625.54 351.73 628.05 356.72 630.08 360.12C630.4 360.65 630.2 361.34 629.65 361.62C626.25 363.37 614.74 368.78 601.39 369.45C600.5 369.49 599.71 368.89 599.48 368.03C589.58 331.07 578.08 307.45 578.08 307.45C590.77 287.19 624.47 291.59 624.47 291.59Z" fill="url(#paint22_linear_14_194)"/>
<path d="M619.94 388.09C620.08 388.09 620.22 388.05 620.35 387.97C620.72 387.74 620.84 387.26 620.61 386.89C620.48 386.67 617.3 381.54 610.87 378.43C610.48 378.24 610.01 378.4 609.82 378.8C609.63 379.19 609.8 379.66 610.19 379.85C616.19 382.74 619.24 387.66 619.27 387.71C619.42 387.96 619.68 388.09 619.94 388.09Z" fill="url(#paint23_linear_14_194)"/>
<path d="M644.19 336.59C643.18 343.89 640.2 351.86 634.23 360.32L631.96 358.47C631.96 358.47 634.58 347.84 633.09 335.79C636.77 335.07 641.12 335.81 644.19 336.59Z" fill="url(#paint24_linear_14_194)"/>
<path d="M620.96 310.94L624.47 291.59C624.47 291.59 647.93 309.52 644.19 336.59C641.12 335.81 636.77 335.07 633.09 335.79C632.01 327.1 628.81 317.67 620.96 310.94Z" fill="url(#paint25_linear_14_194)"/>
<path d="M578.39 307.45L593.54 322.71C596.17 334.28 591.95 341.22 586.2 345.37C583.98 340.47 581.23 336.85 579.02 334.46C584.15 323.05 578.39 307.45 578.39 307.45Z" fill="url(#paint26_linear_14_194)"/>
<path d="M579.01 334.47C581.21 336.86 583.96 340.48 586.19 345.38C571.48 358.2 562.3 346.97 562.3 346.97L565.26 345.27C572.67 343.43 576.83 339.33 579.01 334.47Z" fill="url(#paint27_linear_14_194)"/>
<path d="M586.42 283.38L590.79 299.45C591.28 301.26 593.23 302.22 594.97 301.53C596.84 300.78 599.22 299.76 601.27 298.65C603.46 297.47 604.14 294.66 602.76 292.6L593.67 279.05L586.42 283.38Z" fill="url(#paint28_linear_14_194)"/>
<path d="M576.86 271.17C576.82 271.45 580.51 289.51 580.51 289.51L590.78 287.19L589.83 269.55C589.82 269.55 577.52 266.55 576.86 271.17Z" fill="url(#paint29_linear_14_194)"/>
<path d="M587.51 273.48L588.74 282.73C588.76 282.85 588.76 282.97 588.74 283.08C588.64 283.8 588.1 286.27 585.61 285.57C583.35 284.93 581.28 284.38 579.85 284.82C579.21 285.02 578.82 285.67 578.95 286.33C579.29 287.97 580.11 291.65 581.31 294.75C581.55 295.38 582.24 295.71 582.89 295.52C584.84 294.95 588.91 293.64 591.94 291.82C592.35 291.57 592.6 291.13 592.57 290.65C592.47 288.32 592.2 281.22 592.43 279.23C592.65 277.36 594.94 276.24 595.93 275.84C596.26 275.71 596.51 275.45 596.64 275.12C597.1 273.96 597.74 271.29 594.37 270.2C593.66 269.97 593.29 269.21 593.54 268.51C594.04 267.12 594.25 265 591.64 263.83C588.99 262.64 587.01 264.05 585.94 265.2C585.51 265.66 584.81 265.73 584.28 265.4C583.97 265.21 583.58 265.14 583.11 265.44C582.47 265.84 581.62 265.57 581.29 264.89C580.66 263.59 579.36 262.19 576.77 262.64C572.17 263.43 571.65 268.53 572.86 271.52C574.07 274.51 579.01 273.37 581.49 271.86C583.37 270.71 585.82 271.92 586.88 272.56C587.24 272.74 587.46 273.09 587.51 273.48Z" fill="url(#paint30_linear_14_194)"/>
<path d="M592.85 282.58C592.85 282.58 590.96 277.28 592.9 275.99C594.84 274.7 597.72 275.37 597.09 279.2C596.3 283.97 592.85 282.58 592.85 282.58Z" fill="url(#paint31_linear_14_194)"/>
<path d="M555.85 371.02C554.35 375.07 556.42 379.58 560.47 381.08L644.28 412.11C648.33 413.61 652.84 411.54 654.34 407.49C655.84 403.44 653.77 398.93 649.72 397.43L565.91 366.4C561.86 364.9 557.36 366.97 555.85 371.02Z" fill="url(#paint32_linear_14_194)"/>
<path d="M398.74 293.72C398.43 294.56 398.86 295.5 399.7 295.82L410.41 299.78L411.54 296.72L400.83 292.76C399.99 292.45 399.05 292.88 398.74 293.72Z" fill="url(#paint33_linear_14_194)"/>
<path d="M406.08 296.44C404.98 299.4 406.33 302.71 409.18 304.06L444.44 320.83C448.72 322.86 453.08 324.71 457.52 326.35L565.67 366.39C568.83 367.56 572.33 365.95 573.5 362.79L576.34 355.11C577.51 351.95 575.9 348.45 572.74 347.28L464.5 307.2C460.13 305.58 455.68 304.16 451.18 302.94L413.4 292.67C410.35 291.85 407.18 293.48 406.08 296.44Z" fill="url(#paint34_linear_14_194)"/>
<path d="M705.85 407.43C704.75 410.39 703.29 412.66 702.48 412.66H692.45C691.23 412.66 690.09 412.46 689.01 412.06L667.59 404.13C666.83 403.85 667.16 401.06 668.32 397.9L671.16 390.22C672.33 387.06 673.9 384.73 674.66 385.01L696.1 392.95C697.16 393.34 698.14 393.93 699.05 394.71L706.68 401.26C707.31 401.8 706.94 404.47 705.85 407.43Z" fill="url(#paint35_linear_14_194)"/>
<path d="M415.86 300.08C414 305.1 416.28 310.71 421.12 313.01L480.95 341.45C488.21 344.9 495.62 348.02 503.15 350.81L673.02 413.68C678.38 415.66 684.33 412.93 686.31 407.57L691.13 394.55C693.11 389.19 690.38 383.24 685.02 381.26L514.98 318.32C507.56 315.57 500.02 313.16 492.39 311.09L428.28 293.68C423.11 292.29 417.72 295.06 415.86 300.08Z" fill="url(#paint36_linear_14_194)"/>
<path d="M660.46 372.19L648.46 404.62L643.56 402.8L655.57 370.38L660.46 372.19Z" fill="url(#paint37_linear_14_194)"/>
<path d="M546.64 368.41C545.72 369.13 542.59 367.63 540.67 366.6C539.73 366.1 539.28 365 539.6 363.99C540.06 362.53 540.83 360.65 541.78 360.42C543.35 360.02 550.41 365.46 546.64 368.41Z" fill="url(#paint38_linear_14_194)"/>
<path d="M632.89 358.15L622.3 357.29L617.71 361.52C617.71 361.52 618.8 363.02 622.19 362.16C625.58 361.3 630.23 361.09 630.23 361.09C630.23 361.09 634.91 363.2 634.97 359.25L632.89 358.15Z" fill="url(#paint39_linear_14_194)"/>
<path d="M642.78 51.06C642.37 44.8 638.59 39.25 632.92 36.56L559.48 1.68001C554.78 -0.549993 549.32 -0.549993 544.62 1.68001L471.18 36.56C465.51 39.25 461.73 44.8 461.32 51.06C454.43 157.54 522.71 196.34 545.09 206.14C549.53 208.08 554.57 208.08 559.01 206.14C581.39 196.34 649.67 157.54 642.78 51.06Z" fill="url(#paint40_linear_14_194)"/>
<path d="M529.84 17.09C529.18 17.09 528.55 16.72 528.25 16.08C527.83 15.2 528.21 14.15 529.08 13.73L546.43 5.49C547.31 5.07 548.36 5.45 548.78 6.32C549.2 7.2 548.82 8.25 547.95 8.67L530.6 16.91C530.35 17.03 530.09 17.09 529.84 17.09Z" fill="url(#paint41_linear_14_194)"/>
<path d="M466.94 74.56C466 74.56 465.21 73.81 465.18 72.86C464.95 65.91 465.07 58.67 465.54 51.33C465.85 46.61 468.7 42.41 472.99 40.38L522.39 16.92C523.27 16.5 524.32 16.88 524.74 17.75C525.16 18.63 524.78 19.68 523.91 20.1L474.51 43.56C471.37 45.05 469.29 48.12 469.06 51.56C468.59 58.78 468.47 65.91 468.7 72.75C468.73 73.72 467.97 74.54 467 74.57C466.98 74.56 466.96 74.56 466.94 74.56Z" fill="url(#paint42_linear_14_194)"/>
<path d="M625.02 55.21C624.94 53.62 623.99 52.21 622.56 51.52L553.9 18.92C552.73 18.36 551.37 18.36 550.2 18.92L481.55 51.53C480.11 52.21 479.17 53.63 479.09 55.22C477.06 94.94 486.23 128.08 506.38 153.77C521.74 173.35 539.7 183.85 550.23 188.75C551.39 189.29 552.72 189.29 553.88 188.75C564.41 183.85 582.37 173.36 597.73 153.77C617.88 128.08 627.05 94.93 625.02 55.21Z" fill="#2852A0"/>
<path d="M531.75 97.89H524.91V70.62C524.91 59.91 532.93 50.86 543.56 49.57L557.55 47.87C563.57 47.14 569.63 49.03 574.17 53.05C578.71 57.07 581.32 62.86 581.32 68.92V92.72H574.48V68.92C574.48 64.81 572.72 60.89 569.64 58.17C566.56 55.45 562.46 54.17 558.38 54.66L544.39 56.36C537.19 57.24 531.76 63.37 531.76 70.62V97.89H531.75Z" fill="#FFD000"/>
<path d="M522.89 91.77L582.87 88.45C585.31 88.32 587.36 90.25 587.36 92.69V140.21C587.36 142.56 585.46 144.46 583.11 144.46H524.57C522.28 144.46 520.4 142.64 520.32 140.35L518.88 96.16C518.8 93.84 520.58 91.89 522.89 91.77Z" fill="#FFD000"/>
<path d="M562.89 130.84L559.26 120.4C558.82 119.15 559.12 117.74 560.05 116.8C561.91 114.91 563.02 112.29 562.89 109.4C562.66 104.31 558.5 100.18 553.41 99.99C547.77 99.77 543.14 104.28 543.14 109.87C543.14 112.97 544.57 115.74 546.8 117.55C547.96 118.49 548.43 120.03 547.94 121.44L544.67 130.85C543.87 133.14 545.57 135.53 548 135.53H559.57C561.99 135.52 563.69 133.13 562.89 130.84Z" fill="url(#paint43_linear_14_194)"/>
<path d="M170.82 113.83C170.46 108.27 167.1 103.34 162.07 100.95L96.84 69.97C92.66 67.99 87.81 67.99 83.64 69.97L18.41 100.95C13.38 103.34 10.02 108.27 9.65999 113.83C3.53999 208.41 64.18 242.87 84.06 251.57C88 253.3 92.48 253.3 96.42 251.57C116.3 242.86 176.94 208.4 170.82 113.83Z" fill="url(#paint44_linear_14_194)"/>
<path d="M70.51 83.49C69.99 83.49 69.49 83.2 69.25 82.69C68.92 81.99 69.22 81.16 69.91 80.83L85.32 73.51C86.02 73.18 86.85 73.48 87.18 74.17C87.51 74.87 87.21 75.7 86.52 76.03L71.11 83.35C70.91 83.45 70.71 83.49 70.51 83.49Z" fill="url(#paint45_linear_14_194)"/>
<path d="M14.64 134.54C13.89 134.54 13.27 133.94 13.24 133.19C13.03 127.03 13.14 120.6 13.56 114.08C13.83 109.95 16.33 106.27 20.08 104.49L63.96 83.65C64.66 83.32 65.49 83.62 65.82 84.31C66.15 85.01 65.85 85.84 65.16 86.17L21.28 107.01C18.44 108.36 16.55 111.14 16.35 114.26C15.93 120.68 15.83 127.02 16.03 133.09C16.06 133.86 15.45 134.51 14.68 134.53C14.68 134.54 14.66 134.54 14.64 134.54Z" fill="url(#paint46_linear_14_194)"/>
<path d="M155.05 117.52C154.98 116.11 154.14 114.85 152.86 114.25L91.89 85.28C90.85 84.79 89.64 84.79 88.6 85.28L27.62 114.24C26.34 114.85 25.51 116.1 25.43 117.51C23.63 152.79 31.78 182.23 49.67 205.04C63.31 222.43 79.27 231.76 88.62 236.11C89.65 236.59 90.84 236.59 91.87 236.11C101.22 231.76 117.18 222.44 130.82 205.04C148.7 182.24 156.85 152.8 155.05 117.52Z" fill="#2852A0"/>
<path d="M97.76 209.01V162.17C110.04 159.03 119.12 147.89 119.12 134.64C119.12 118.94 106.4 106.22 90.7 106.22C75 106.22 62.28 118.94 62.28 134.64C62.28 148.52 72.24 160.08 85.4 162.56V175.95H78.25C75.57 175.95 73.4 178.12 73.4 180.8V180.98C73.4 183.66 75.57 185.83 78.25 185.83H85.4V198.19H74.37C71.69 198.19 69.52 200.36 69.52 203.04V203.22C69.52 205.9 71.69 208.07 74.37 208.07H85.4V209.01C85.4 212.39 88.14 215.13 91.52 215.13H91.64C95.02 215.13 97.76 212.39 97.76 209.01ZM73.17 134.64C73.17 124.96 81.02 117.11 90.7 117.11C100.38 117.11 108.23 124.96 108.23 134.64C108.23 144.32 100.38 152.17 90.7 152.17C81.02 152.17 73.17 144.32 73.17 134.64Z" fill="#FFD000"/>
<path d="M70.19 242.81C70.19 242.81 92.81 271.78 67 301.24L57.3 300.34C57.3 300.34 75.98 270.35 67.66 246.44L58.09 245.8C56.33 245.68 54.68 244.93 53.45 243.68L50.72 240.92C49.75 239.94 50.67 238.3 52.01 238.61L70.19 242.81Z" fill="url(#paint47_linear_14_194)"/>
<path d="M57.8 384.62C57.8 384.62 39.47 424.57 29.85 441.12C29.85 441.12 27.94 451.53 29.85 454.81L31.48 455.53L23.88 455.3C23.88 455.3 23.21 441.3 23.73 440.51C24.26 439.73 25.31 439.78 25.31 439.78C25.31 439.78 28.57 413.97 38 408.46L47.14 376.97L57.8 384.62Z" fill="url(#paint48_linear_14_194)"/>
<path d="M34.73 457.49C34.74 457.67 28.8 457.59 25.57 457.53C24.38 457.51 23.36 456.67 23.11 455.51L20.67 442.7C20.44 441.48 21.21 440.3 22.42 440.02L23.78 439.71C23.78 439.71 25.72 442.37 25.11 444.88C24.5 447.39 23.95 453.88 25.5 454.64C27.04 455.4 31.49 455.53 31.49 455.53C31.49 455.53 34.63 455.84 34.73 457.49Z" fill="url(#paint49_linear_14_194)"/>
<path d="M75.18 457.72C75.78 458.06 75.53 458.98 74.84 458.97C69.44 458.92 57.33 458.74 56.25 458.3C54.86 457.72 56.76 452.73 58.75 451.04L69.76 454.63L75.18 457.72Z" fill="url(#paint50_linear_14_194)"/>
<path d="M78.59 382.07C78.59 382.07 66.75 439.37 63.39 450.55L71.32 455.52C71.32 455.52 67.35 454.84 64.4 454.63C61.45 454.42 58.74 451.04 58.74 451.04L59.69 449.53C59.69 449.53 62.66 392.54 61.94 386.07L78.59 382.07Z" fill="url(#paint51_linear_14_194)"/>
<path d="M108 248.41C108 248.41 109.63 278.22 82.5 293.45L89.03 308.35C89.03 308.35 113.57 293.51 112.69 253.03C112.66 251.84 113.06 250.68 113.84 249.78L119.06 243.72C121.05 241.41 121.79 238.28 121.05 235.32L120.36 232.57C120.13 231.65 119.08 231.21 118.26 231.68L117.71 232C115.97 233.01 114.59 234.54 113.77 236.38L111.21 242.11C110.37 243.98 110.07 244.34 108.44 244.26C107.91 244.23 107.37 244.29 106.85 244.43L104.12 245.21L108 248.41Z" fill="url(#paint52_linear_14_194)"/>
<path d="M83.44 291.22C78.9 292.48 63.52 296.53 53.92 296.36L59.82 329.63L59.35 335.06L78.57 334.97C78.57 334.97 83.98 322.4 88.25 316.14C89.48 314.33 88.57 312.17 87.87 310.1L88.83 309.46C89.81 308.81 90.23 307.59 89.87 306.47L85.19 292.15C84.93 291.42 84.17 291.02 83.44 291.22Z" fill="url(#paint53_linear_14_194)"/>
<path d="M80.1 332.13L79.72 335.42C79.72 335.42 85.15 351.69 77 389.69C77 389.69 59.35 394.69 44.85 382.73C44.85 382.73 48.94 346.87 50.06 345.2C55.63 336.88 59.33 335.07 59.33 335.07L59.5 331.48C59.51 331.47 75.02 334.27 80.1 332.13Z" fill="url(#paint54_linear_14_194)"/>
<path d="M72.58 293.9C72.65 293.81 68.57 281.58 68.57 281.58L62.72 282.11L60.44 295.99C60.44 295.99 69.6 297.84 72.58 293.9Z" fill="url(#paint55_linear_14_194)"/>
<path d="M64.12 262.29C64.51 262.53 76.61 267.53 74.01 280.1C73.86 280.84 73.36 281.47 72.67 281.78C70.89 282.57 67.07 283.93 62.5 283.46C56.16 282.82 52.01 271.75 52.18 268.54C52.36 265.32 60.26 259.89 64.12 262.29Z" fill="url(#paint56_linear_14_194)"/>
<path d="M68.12 288.61C68.12 285.86 67.54 283.24 66.51 280.87C65.34 278.2 65.58 275.08 67.45 272.85C70.51 269.19 71.62 264.55 69.93 260.49C67.3 254.15 58.86 251.62 51.08 254.85C45.57 257.14 41.87 261.7 41.12 266.42C40.69 269.13 39.24 271.56 37.05 273.22C33.95 275.58 31.59 278.86 30.37 282.65C29.54 285.21 27.88 287.42 25.54 288.75C20.26 291.76 15.86 296.41 13.19 302.38C6.49999 317.35 13.26 334.92 28.28 341.63C43.3 348.34 60.89 341.64 67.58 326.67C71.29 318.35 70.86 309.24 67.16 301.62C66.23 299.71 66.04 297.51 66.81 295.53C67.65 293.4 68.12 291.06 68.12 288.61Z" fill="white"/>
</g>
<defs>
<linearGradient id="paint0_linear_14_194" x1="82.2146" y1="76.4118" x2="150.955" y2="409.896" gradientUnits="userSpaceOnUse">
<stop stop-color="#232451"/>
<stop offset="1" stop-color="#2A307B"/>
</linearGradient>
<linearGradient id="paint1_linear_14_194" x1="8.98339" y1="230.236" x2="54.6511" y2="451.787" gradientUnits="userSpaceOnUse">
<stop stop-color="#40509E"/>
<stop offset="1" stop-color="#4857A3"/>
</linearGradient>
<linearGradient id="paint2_linear_14_194" x1="328.302" y1="379.349" x2="221.803" y2="807.475" gradientUnits="userSpaceOnUse">
<stop stop-color="#232451"/>
<stop offset="1" stop-color="#2A307B"/>
</linearGradient>
<linearGradient id="paint3_linear_14_194" x1="41.6167" y1="432.649" x2="669.003" y2="432.649" gradientUnits="userSpaceOnUse">
<stop stop-color="#DAE1F3"/>
<stop offset="1" stop-color="#E9EFFA"/>
</linearGradient>
<linearGradient id="paint4_linear_14_194" x1="693.09" y1="210.005" x2="570.862" y2="307.405" gradientUnits="userSpaceOnUse">
<stop stop-color="#40509E"/>
<stop offset="1" stop-color="#4857A3"/>
</linearGradient>
<linearGradient id="paint5_linear_14_194" x1="680.225" y1="212.663" x2="507.734" y2="351.234" gradientUnits="userSpaceOnUse">
<stop stop-color="#40509E"/>
<stop offset="1" stop-color="#4857A3"/>
</linearGradient>
<linearGradient id="paint6_linear_14_194" x1="500.871" y1="142.847" x2="365.595" y2="-179.736" gradientUnits="userSpaceOnUse">
<stop stop-color="#6CC9F0"/>
<stop offset="0.2057" stop-color="#61B4E5"/>
<stop offset="1" stop-color="#3C519F"/>
</linearGradient>
<linearGradient id="paint7_linear_14_194" x1="442.373" y1="97.4358" x2="-20.3845" y2="630.793" gradientUnits="userSpaceOnUse">
<stop stop-color="#40509E"/>
<stop offset="1" stop-color="#4857A3"/>
</linearGradient>
<linearGradient id="paint8_linear_14_194" x1="175.47" y1="107.908" x2="413.024" y2="107.908" gradientUnits="userSpaceOnUse">
<stop stop-color="#DAE1F3"/>
<stop offset="1" stop-color="#E9EFFA"/>
</linearGradient>
<linearGradient id="paint9_linear_14_194" x1="178.316" y1="135.988" x2="337.996" y2="135.988" gradientUnits="userSpaceOnUse">
<stop stop-color="#DAE1F3"/>
<stop offset="1" stop-color="#E9EFFA"/>
</linearGradient>
<linearGradient id="paint10_linear_14_194" x1="171.741" y1="175.523" x2="409.295" y2="175.523" gradientUnits="userSpaceOnUse">
<stop stop-color="#DAE1F3"/>
<stop offset="1" stop-color="#E9EFFA"/>
</linearGradient>
<linearGradient id="paint11_linear_14_194" x1="174.587" y1="203.602" x2="334.267" y2="203.602" gradientUnits="userSpaceOnUse">
<stop stop-color="#DAE1F3"/>
<stop offset="1" stop-color="#E9EFFA"/>
</linearGradient>
<linearGradient id="paint12_linear_14_194" x1="193.826" y1="303.022" x2="370.509" y2="303.022" gradientUnits="userSpaceOnUse">
<stop stop-color="#DAE1F3"/>
<stop offset="1" stop-color="#E9EFFA"/>
</linearGradient>
<linearGradient id="paint13_linear_14_194" x1="485.833" y1="277.242" x2="500.279" y2="277.242" gradientUnits="userSpaceOnUse">
<stop stop-color="#DAE1F3"/>
<stop offset="1" stop-color="#E9EFFA"/>
</linearGradient>
<linearGradient id="paint14_linear_14_194" x1="574.489" y1="288.578" x2="586.865" y2="288.578" gradientUnits="userSpaceOnUse">
<stop stop-color="#DAE1F3"/>
<stop offset="1" stop-color="#E9EFFA"/>
</linearGradient>
<linearGradient id="paint15_linear_14_194" x1="623.486" y1="474.789" x2="599.107" y2="474.789" gradientUnits="userSpaceOnUse">
<stop stop-color="#40509E"/>
<stop offset="1" stop-color="#4857A3"/>
</linearGradient>
<linearGradient id="paint16_linear_14_194" x1="623.488" y1="470.011" x2="599.795" y2="470.011" gradientUnits="userSpaceOnUse">
<stop stop-color="#232451"/>
<stop offset="1" stop-color="#2A307B"/>
</linearGradient>
<linearGradient id="paint17_linear_14_194" x1="621.235" y1="463.34" x2="614.368" y2="463.34" gradientUnits="userSpaceOnUse">
<stop stop-color="#F2908F"/>
<stop offset="1" stop-color="#F6B2B2"/>
</linearGradient>
<linearGradient id="paint18_linear_14_194" x1="672.088" y1="474.263" x2="662.746" y2="474.263" gradientUnits="userSpaceOnUse">
<stop stop-color="#40509E"/>
<stop offset="1" stop-color="#4857A3"/>
</linearGradient>
<linearGradient id="paint19_linear_14_194" x1="672.02" y1="467.069" x2="658.307" y2="467.069" gradientUnits="userSpaceOnUse">
<stop stop-color="#232451"/>
<stop offset="1" stop-color="#2A307B"/>
</linearGradient>
<linearGradient id="paint20_linear_14_194" x1="664.893" y1="457.615" x2="656.686" y2="457.615" gradientUnits="userSpaceOnUse">
<stop stop-color="#F2908F"/>
<stop offset="1" stop-color="#F6B2B2"/>
</linearGradient>
<linearGradient id="paint21_linear_14_194" x1="635.222" y1="437.826" x2="642.676" y2="518.402" gradientUnits="userSpaceOnUse">
<stop stop-color="#40509E"/>
<stop offset="1" stop-color="#4857A3"/>
</linearGradient>
<linearGradient id="paint22_linear_14_194" x1="610.154" y1="328.769" x2="521.059" y2="391.597" gradientUnits="userSpaceOnUse">
<stop stop-color="#232451"/>
<stop offset="1" stop-color="#2A307B"/>
</linearGradient>
<linearGradient id="paint23_linear_14_194" x1="637.236" y1="427.222" x2="633.304" y2="419.357" gradientUnits="userSpaceOnUse">
<stop stop-color="#6CC9F0"/>
<stop offset="1" stop-color="#3C519F"/>
</linearGradient>
<linearGradient id="paint24_linear_14_194" x1="609.938" y1="278.664" x2="639.518" y2="351.076" gradientUnits="userSpaceOnUse">
<stop stop-color="#F2908F"/>
<stop offset="1" stop-color="#F6B2B2"/>
</linearGradient>
<linearGradient id="paint25_linear_14_194" x1="611.269" y1="330.35" x2="522.174" y2="393.178" gradientUnits="userSpaceOnUse">
<stop stop-color="#232451"/>
<stop offset="1" stop-color="#2A307B"/>
</linearGradient>
<linearGradient id="paint26_linear_14_194" x1="548.451" y1="313.334" x2="779.961" y2="402.841" gradientUnits="userSpaceOnUse">
<stop stop-color="#232451"/>
<stop offset="1" stop-color="#2A307B"/>
</linearGradient>
<linearGradient id="paint27_linear_14_194" x1="584.376" y1="340.357" x2="562.739" y2="348.18" gradientUnits="userSpaceOnUse">
<stop stop-color="#F2908F"/>
<stop offset="1" stop-color="#F6B2B2"/>
</linearGradient>
<linearGradient id="paint28_linear_14_194" x1="594.89" y1="278.949" x2="595.141" y2="321.915" gradientUnits="userSpaceOnUse">
<stop stop-color="#F2908F"/>
<stop offset="1" stop-color="#F6B2B2"/>
</linearGradient>
<linearGradient id="paint29_linear_14_194" x1="580.948" y1="271.884" x2="597.884" y2="302.596" gradientUnits="userSpaceOnUse">
<stop stop-color="#F2908F"/>
<stop offset="1" stop-color="#F6B2B2"/>
</linearGradient>
<linearGradient id="paint30_linear_14_194" x1="595.97" y1="280.87" x2="570.967" y2="277.263" gradientUnits="userSpaceOnUse">
<stop stop-color="#232451"/>
<stop offset="1" stop-color="#2A307B"/>
</linearGradient>
<linearGradient id="paint31_linear_14_194" x1="608.441" y1="298.237" x2="594.137" y2="278.589" gradientUnits="userSpaceOnUse">
<stop stop-color="#F2908F"/>
<stop offset="1" stop-color="#F6B2B2"/>
</linearGradient>
<linearGradient id="paint32_linear_14_194" x1="607.507" y1="331.533" x2="605.022" y2="391.167" gradientUnits="userSpaceOnUse">
<stop stop-color="#40509E"/>
<stop offset="1" stop-color="#4857A3"/>
</linearGradient>
<linearGradient id="paint33_linear_14_194" x1="396.632" y1="290.606" x2="426.155" y2="309.271" gradientUnits="userSpaceOnUse">
<stop stop-color="#232451"/>
<stop offset="1" stop-color="#2A307B"/>
</linearGradient>
<linearGradient id="paint34_linear_14_194" x1="506.985" y1="336.158" x2="456.873" y2="303.173" gradientUnits="userSpaceOnUse">
<stop stop-color="#40509E"/>
<stop offset="1" stop-color="#4857A3"/>
</linearGradient>
<linearGradient id="paint35_linear_14_194" x1="683.525" y1="398.876" x2="696.841" y2="400.576" gradientUnits="userSpaceOnUse">
<stop stop-color="#40509E"/>
<stop offset="1" stop-color="#4857A3"/>
</linearGradient>
<linearGradient id="paint36_linear_14_194" x1="373.94" y1="341.675" x2="591.176" y2="356.584" gradientUnits="userSpaceOnUse">
<stop stop-color="#232451"/>
<stop offset="1" stop-color="#2A307B"/>
</linearGradient>
<linearGradient id="paint37_linear_14_194" x1="635.022" y1="368.472" x2="678.293" y2="416.925" gradientUnits="userSpaceOnUse">
<stop stop-color="#40509E"/>
<stop offset="1" stop-color="#4857A3"/>
</linearGradient>
<linearGradient id="paint38_linear_14_194" x1="547.736" y1="364.494" x2="539.497" y2="364.494" gradientUnits="userSpaceOnUse">
<stop stop-color="#F2908F"/>
<stop offset="1" stop-color="#F6B2B2"/>
</linearGradient>
<linearGradient id="paint39_linear_14_194" x1="595.39" y1="284.607" x2="624.971" y2="357.019" gradientUnits="userSpaceOnUse">
<stop stop-color="#F2908F"/>
<stop offset="1" stop-color="#F6B2B2"/>
</linearGradient>
<linearGradient id="paint40_linear_14_194" x1="565.487" y1="-186.904" x2="549.512" y2="113.424" gradientUnits="userSpaceOnUse">
<stop stop-color="#232451"/>
<stop offset="1" stop-color="#2A307B"/>
</linearGradient>
<linearGradient id="paint41_linear_14_194" x1="528.076" y1="11.2067" x2="548.95" y2="11.2067" gradientUnits="userSpaceOnUse">
<stop stop-color="#DAE1F3"/>
<stop offset="1" stop-color="#E9EFFA"/>
</linearGradient>
<linearGradient id="paint42_linear_14_194" x1="465.066" y1="45.6511" x2="524.914" y2="45.6511" gradientUnits="userSpaceOnUse">
<stop stop-color="#DAE1F3"/>
<stop offset="1" stop-color="#E9EFFA"/>
</linearGradient>
<linearGradient id="paint43_linear_14_194" x1="541.28" y1="175.015" x2="527.082" y2="240.327" gradientUnits="userSpaceOnUse">
<stop stop-color="#40509E"/>
<stop offset="1" stop-color="#4857A3"/>
</linearGradient>
<linearGradient id="paint44_linear_14_194" x1="83.1411" y1="328.021" x2="89.5312" y2="146.973" gradientUnits="userSpaceOnUse">
<stop stop-color="#232451"/>
<stop offset="1" stop-color="#2A307B"/>
</linearGradient>
<linearGradient id="paint45_linear_14_194" x1="69.1108" y1="78.4339" x2="87.3194" y2="78.4339" gradientUnits="userSpaceOnUse">
<stop stop-color="#DAE1F3"/>
<stop offset="1" stop-color="#E9EFFA"/>
</linearGradient>
<linearGradient id="paint46_linear_14_194" x1="13.1461" y1="109.028" x2="65.9706" y2="109.028" gradientUnits="userSpaceOnUse">
<stop stop-color="#DAE1F3"/>
<stop offset="1" stop-color="#E9EFFA"/>
</linearGradient>
<linearGradient id="paint47_linear_14_194" x1="40.0922" y1="195.386" x2="56.9101" y2="246.937" gradientUnits="userSpaceOnUse">
<stop stop-color="#F2908F"/>
<stop offset="1" stop-color="#F6B2B2"/>
</linearGradient>
<linearGradient id="paint48_linear_14_194" x1="57.8027" y1="416.251" x2="23.538" y2="416.251" gradientUnits="userSpaceOnUse">
<stop stop-color="#F2908F"/>
<stop offset="1" stop-color="#F6B2B2"/>
</linearGradient>
<linearGradient id="paint49_linear_14_194" x1="10.705" y1="339.625" x2="27.6738" y2="449.922" gradientUnits="userSpaceOnUse">
<stop stop-color="#6CC9F0"/>
<stop offset="1" stop-color="#3C519F"/>
</linearGradient>
<linearGradient id="paint50_linear_14_194" x1="46.6093" y1="334.1" x2="63.5786" y2="444.399" gradientUnits="userSpaceOnUse">
<stop stop-color="#6CC9F0"/>
<stop offset="1" stop-color="#3C519F"/>
</linearGradient>
<linearGradient id="paint51_linear_14_194" x1="78.5942" y1="418.799" x2="58.7524" y2="418.799" gradientUnits="userSpaceOnUse">
<stop stop-color="#F2908F"/>
<stop offset="1" stop-color="#F6B2B2"/>
</linearGradient>
<linearGradient id="paint52_linear_14_194" x1="121.338" y1="269.931" x2="82.4931" y2="269.931" gradientUnits="userSpaceOnUse">
<stop stop-color="#F2908F"/>
<stop offset="1" stop-color="#F6B2B2"/>
</linearGradient>
<linearGradient id="paint53_linear_14_194" x1="78.771" y1="291.047" x2="5.9458" y2="435.283" gradientUnits="userSpaceOnUse">
<stop stop-color="#CC246E"/>
<stop offset="1" stop-color="#4C266C"/>
</linearGradient>
<linearGradient id="paint54_linear_14_194" x1="96.1132" y1="329.161" x2="32.4794" y2="400.925" gradientUnits="userSpaceOnUse">
<stop stop-color="#40509E"/>
<stop offset="1" stop-color="#4857A3"/>
</linearGradient>
<linearGradient id="paint55_linear_14_194" x1="535.738" y1="940.046" x2="583.123" y2="1005.53" gradientUnits="userSpaceOnUse">
<stop stop-color="#F2908F"/>
<stop offset="1" stop-color="#F6B2B2"/>
</linearGradient>
<linearGradient id="paint56_linear_14_194" x1="542.536" y1="935.125" x2="589.92" y2="1000.61" gradientUnits="userSpaceOnUse">
<stop stop-color="#F2908F"/>
<stop offset="1" stop-color="#F6B2B2"/>
</linearGradient>
<clipPath id="clip0_14_194">
<rect width="706.99" height="475.97" fill="white"/>
</clipPath>
</defs>
</svg>
