<svg width="256" height="294" viewBox="0 0 1356 294" fill="none" xmlns="http://www.w3.org/2000/svg">
<path d="M550.254 182.668C555.104 171.129 566.567 158.916 584.625 146.027C600.3 134.807 610.441 126.768 615.056 121.918C622.138 114.358 625.675 106.084 625.675 97.0971C625.675 89.7802 623.649 83.6921 619.587 78.8329C615.525 73.9831 609.718 71.5535 602.158 71.5535C591.811 71.5535 584.775 75.4183 581.032 83.1293C578.884 87.5851 577.608 94.6675 577.214 104.376H544.157C544.71 89.6582 547.384 77.7635 552.159 68.6924C561.239 51.4226 577.374 42.7924 600.544 42.7924C618.865 42.7924 633.442 47.8673 644.277 58.0078C655.111 68.1483 660.524 81.5814 660.524 98.2884C660.524 111.102 656.697 122.481 649.042 132.425C644.024 139.029 635.769 146.393 624.287 154.507L610.656 164.178C602.129 170.229 596.285 174.6 593.143 177.311C590 180.013 587.355 183.155 585.207 186.739H660.759V216.701H542.262C542.581 204.271 545.245 192.93 550.254 182.668Z" fill="#FFD000"/>
<path d="M693.901 59.4337C704.604 47.933 718.506 42.1826 735.616 42.1826C761.957 42.1826 780.015 53.8428 789.799 77.1538C795.371 90.3618 798.157 107.754 798.157 129.31C798.157 150.239 795.493 167.705 790.165 181.711C779.978 208.371 761.282 221.691 734.069 221.691C721.095 221.691 709.444 217.854 699.097 210.172C688.751 202.489 682.822 191.298 681.312 176.57H715.204C716.001 181.664 718.15 185.801 721.649 188.981C725.148 192.161 729.8 193.756 735.616 193.756C746.836 193.756 754.715 187.546 759.246 175.135C761.713 168.296 763.261 158.306 763.899 145.173C760.794 149.075 757.492 152.058 753.993 154.122C747.624 157.94 739.791 159.854 730.485 159.854C716.714 159.854 704.501 155.098 693.844 145.595C683.178 136.083 677.85 122.378 677.85 104.48C677.85 85.9528 683.197 70.9344 693.901 59.4337ZM751.132 128.128C758.852 123.194 762.708 114.639 762.708 102.472C762.708 92.6882 760.419 84.9303 755.841 79.1987C751.263 73.4672 744.997 70.6061 737.042 70.6061C731.236 70.6061 726.264 72.2383 722.127 75.5028C715.598 80.5965 712.343 89.2267 712.343 101.403C712.343 111.665 714.435 119.367 718.609 124.498C722.784 129.629 729.209 132.2 737.887 132.2C742.577 132.181 746.995 130.83 751.132 128.128Z" fill="#FFD000"/>
<path d="M797.623 77.2289V70.8219C800.587 70.6905 802.66 70.4936 803.842 70.2309C805.728 69.8088 807.266 68.9739 808.448 67.7263C809.264 66.8726 809.874 65.7282 810.296 64.2929C810.54 63.4299 810.662 62.792 810.662 62.3793H818.523V110.239H808.879V77.2289H797.623Z" fill="white"/>
<path d="M828.907 100.831C830.249 97.6412 833.419 94.2642 838.41 90.6995C842.744 87.5945 845.549 85.3713 846.824 84.0299C848.785 81.938 849.76 79.6491 849.76 77.1632C849.76 75.137 849.198 73.4578 848.081 72.1164C846.956 70.775 845.352 70.0996 843.26 70.0996C840.399 70.0996 838.447 71.169 837.415 73.2984C836.825 74.5272 836.468 76.4878 836.355 79.1707H827.209C827.359 75.0995 828.1 71.8069 829.423 69.3022C831.937 64.5274 836.393 62.1354 842.809 62.1354C847.875 62.1354 851.909 63.5425 854.901 66.3473C857.894 69.1521 859.394 72.8669 859.394 77.4915C859.394 81.0374 858.334 84.18 856.224 86.9285C854.835 88.7577 852.556 90.7933 849.376 93.0353L845.605 95.7088C843.25 97.3786 841.627 98.5887 840.764 99.3391C839.892 100.09 839.16 100.953 838.569 101.947H859.46V110.23H826.693C826.778 106.806 827.519 103.664 828.907 100.831Z" fill="white"/>
<path d="M502.676 221.682H496.709V209.44C488.623 208.54 482.601 206.776 478.623 204.149C471.607 199.431 468.164 191.392 468.286 180.032H484.899C485.471 185.2 486.269 188.662 487.301 190.425C488.905 193.174 492.038 194.956 496.719 195.782V169.507L491.738 168.034C483.905 165.735 478.38 162.537 475.153 158.437C471.935 154.338 470.322 149.394 470.322 143.606C470.322 139.789 470.95 136.327 472.198 133.213C473.445 130.098 475.2 127.406 477.46 125.155C480.368 122.247 483.614 120.23 487.179 119.123C489.355 118.429 492.535 117.913 496.719 117.584V109.405H502.685V117.706C509.336 118.241 514.561 119.883 518.36 122.631C525.255 127.021 528.829 134.141 529.073 143.982H512.891C512.563 140.333 511.962 137.669 511.071 135.98C509.533 133.072 506.737 131.468 502.685 131.177V154.619C512.403 157.987 518.942 160.961 522.291 163.54C527.806 167.846 530.564 173.915 530.564 181.748C530.564 192.086 526.774 199.59 519.186 204.271C514.551 207.142 509.054 208.821 502.694 209.318V221.682H502.676ZM496.7 131.299C493.135 131.383 490.481 132.331 488.764 134.16C487.038 135.989 486.184 138.475 486.184 141.637C486.184 145.079 487.479 147.809 490.059 149.816C491.494 150.923 493.708 151.946 496.7 152.893V131.299ZM502.676 195.594C505.874 195.181 508.21 194.45 509.674 193.38C512.225 191.495 513.51 188.23 513.51 183.596C513.51 180.069 512.309 177.283 509.917 175.229C508.501 174.037 506.09 172.809 502.676 171.533V195.594Z" fill="white"/>
<path d="M127.73 92.6599H148.93V96.4028H131.876V105.68H146.876V109.32H131.876V123.222H127.739V92.6599H127.73Z" fill="white"/>
<path d="M152.87 92.6599H156.679V96.9H152.87V92.6599ZM152.87 101.037H156.679V123.213H152.87V101.037Z" fill="white"/>
<path d="M162.438 100.934H165.994V104.78C166.285 104.029 166.997 103.119 168.133 102.041C169.268 100.962 170.581 100.427 172.063 100.427C172.129 100.427 172.251 100.437 172.419 100.446C172.588 100.465 172.87 100.483 173.273 100.53V104.48C173.048 104.442 172.851 104.414 172.663 104.395C172.476 104.386 172.269 104.376 172.054 104.376C170.168 104.376 168.714 104.986 167.71 106.196C166.697 107.406 166.191 108.804 166.191 110.389V123.203H162.448V100.934H162.438Z" fill="white"/>
<path d="M176.519 100.934H180.224V104.095C181.115 102.997 181.913 102.2 182.635 101.703C183.873 100.859 185.271 100.437 186.838 100.437C188.611 100.437 190.046 100.877 191.125 101.75C191.734 102.247 192.288 102.988 192.785 103.954C193.62 102.763 194.595 101.881 195.721 101.3C196.847 100.727 198.104 100.437 199.511 100.437C202.503 100.437 204.548 101.515 205.627 103.682C206.209 104.845 206.499 106.412 206.499 108.382V123.213H202.606V107.735C202.606 106.253 202.231 105.23 201.49 104.677C200.749 104.123 199.839 103.842 198.779 103.842C197.306 103.842 196.04 104.33 194.98 105.314C193.92 106.299 193.385 107.941 193.385 110.249V123.213H189.577V108.673C189.577 107.162 189.399 106.056 189.033 105.361C188.46 104.32 187.4 103.804 185.853 103.804C184.436 103.804 183.151 104.348 181.997 105.446C180.843 106.543 180.262 108.523 180.262 111.393V123.213H176.519V100.934Z" fill="white"/>
<path d="M223.957 109.714C224.82 109.601 225.392 109.245 225.683 108.635C225.852 108.307 225.936 107.829 225.936 107.2C225.936 105.924 225.486 104.996 224.576 104.423C223.666 103.851 222.372 103.56 220.674 103.56C218.723 103.56 217.334 104.086 216.509 105.146C216.049 105.727 215.749 106.6 215.618 107.744H212.119C212.184 104.996 213.075 103.091 214.792 102.013C216.509 100.934 218.488 100.399 220.749 100.399C223.366 100.399 225.495 100.896 227.137 101.9C228.76 102.894 229.567 104.451 229.567 106.562V119.395C229.567 119.78 229.642 120.098 229.81 120.333C229.97 120.567 230.308 120.689 230.824 120.689C230.992 120.689 231.18 120.68 231.386 120.661C231.593 120.643 231.818 120.605 232.052 120.567V123.335C231.471 123.504 231.03 123.607 230.72 123.644C230.411 123.682 229.998 123.71 229.473 123.71C228.178 123.71 227.25 123.25 226.668 122.34C226.358 121.853 226.152 121.168 226.021 120.277C225.261 121.271 224.163 122.143 222.737 122.875C221.312 123.607 219.736 123.982 218.019 123.982C215.955 123.982 214.267 123.354 212.953 122.097C211.64 120.84 210.983 119.273 210.983 117.387C210.983 115.324 211.631 113.72 212.916 112.585C214.21 111.449 215.899 110.746 217.991 110.483L223.957 109.714ZM216.077 119.845C216.865 120.474 217.803 120.783 218.882 120.783C220.195 120.783 221.471 120.483 222.709 119.864C224.792 118.851 225.833 117.19 225.833 114.892V111.872C225.373 112.162 224.782 112.406 224.069 112.603C223.347 112.8 222.644 112.932 221.949 113.016L219.679 113.307C218.319 113.485 217.297 113.776 216.621 114.16C215.467 114.817 214.895 115.849 214.895 117.284C214.886 118.372 215.28 119.226 216.077 119.845Z" fill="white"/>
<path d="M261.433 101.553C262.915 102.294 264.05 103.251 264.829 104.433C265.579 105.558 266.076 106.862 266.329 108.363C266.555 109.386 266.658 111.027 266.658 113.269H250.326C250.392 115.53 250.926 117.34 251.93 118.71C252.934 120.08 254.472 120.755 256.574 120.755C258.525 120.755 260.091 120.108 261.254 118.823C261.921 118.072 262.39 117.209 262.671 116.224H266.348C266.254 117.04 265.926 117.95 265.382 118.963C264.838 119.967 264.219 120.793 263.543 121.43C262.408 122.537 261.001 123.288 259.322 123.682C258.422 123.907 257.399 124.01 256.264 124.01C253.487 124.01 251.142 122.997 249.21 120.98C247.277 118.963 246.32 116.14 246.32 112.5C246.32 108.926 247.296 106.018 249.238 103.785C251.18 101.553 253.722 100.437 256.855 100.437C258.412 100.437 259.941 100.812 261.433 101.553ZM262.802 110.296C262.652 108.673 262.296 107.378 261.742 106.403C260.72 104.602 259.003 103.701 256.602 103.701C254.885 103.701 253.44 104.32 252.277 105.558C251.114 106.797 250.495 108.382 250.429 110.296H262.802Z" fill="white"/>
<path d="M271.254 100.934H274.81V104.095C275.86 102.791 276.976 101.853 278.158 101.29C279.34 100.718 280.644 100.437 282.089 100.437C285.25 100.437 287.389 101.543 288.496 103.748C289.106 104.958 289.415 106.684 289.415 108.926V123.222H285.607V109.179C285.607 107.819 285.41 106.722 285.006 105.896C284.34 104.508 283.13 103.814 281.385 103.814C280.494 103.814 279.772 103.907 279.2 104.086C278.177 104.395 277.267 105.005 276.498 105.915C275.87 106.647 275.466 107.406 275.279 108.194C275.091 108.982 274.997 110.099 274.997 111.553V123.222H271.254V100.934Z" fill="white"/>
<path d="M318.73 109.714C319.593 109.601 320.165 109.245 320.456 108.635C320.625 108.307 320.709 107.829 320.709 107.2C320.709 105.924 320.259 104.996 319.349 104.423C318.439 103.851 317.145 103.56 315.447 103.56C313.495 103.56 312.107 104.086 311.282 105.146C310.822 105.727 310.522 106.6 310.39 107.744H306.891C306.957 104.996 307.848 103.091 309.565 102.013C311.282 100.934 313.261 100.399 315.522 100.399C318.139 100.399 320.268 100.896 321.91 101.9C323.533 102.894 324.34 104.451 324.34 106.562V119.395C324.34 119.78 324.415 120.098 324.583 120.333C324.743 120.567 325.081 120.689 325.597 120.689C325.765 120.689 325.953 120.68 326.159 120.661C326.366 120.643 326.591 120.605 326.825 120.567V123.335C326.244 123.504 325.803 123.607 325.493 123.644C325.184 123.682 324.771 123.71 324.246 123.71C322.951 123.71 322.022 123.25 321.441 122.34C321.131 121.853 320.925 121.168 320.794 120.277C320.034 121.271 318.936 122.143 317.51 122.875C316.085 123.607 314.509 123.982 312.792 123.982C310.728 123.982 309.04 123.354 307.726 122.097C306.413 120.84 305.756 119.273 305.756 117.387C305.756 115.324 306.404 113.72 307.689 112.585C308.983 111.449 310.672 110.746 312.764 110.483L318.73 109.714ZM310.841 119.845C311.629 120.474 312.567 120.783 313.646 120.783C314.959 120.783 316.235 120.483 317.473 119.864C319.555 118.851 320.597 117.19 320.597 114.892V111.872C320.137 112.162 319.546 112.406 318.833 112.603C318.111 112.8 317.407 112.932 316.713 113.016L314.443 113.307C313.083 113.485 312.06 113.776 311.385 114.16C310.231 114.817 309.659 115.849 309.659 117.284C309.659 118.372 310.053 119.226 310.841 119.845Z" fill="white"/>
<path d="M330.587 100.934H334.142V104.78C334.433 104.029 335.146 103.119 336.281 102.041C337.416 100.962 338.729 100.427 340.212 100.427C340.277 100.427 340.399 100.437 340.568 100.446C340.737 100.465 341.018 100.483 341.422 100.53V104.48C341.197 104.442 341 104.414 340.812 104.395C340.624 104.386 340.418 104.376 340.202 104.376C338.317 104.376 336.863 104.986 335.859 106.196C334.846 107.406 334.339 108.804 334.339 110.389V123.203H330.596V100.934H330.587Z" fill="white"/>
<path d="M359.395 102.125C360.971 103.345 361.919 105.446 362.237 108.429H358.598C358.373 107.059 357.866 105.915 357.078 105.005C356.29 104.095 355.014 103.645 353.27 103.645C350.887 103.645 349.18 104.808 348.148 107.144C347.482 108.654 347.153 110.521 347.153 112.744C347.153 114.977 347.622 116.853 348.57 118.382C349.508 119.911 350.999 120.671 353.026 120.671C354.583 120.671 355.812 120.192 356.722 119.245C357.632 118.297 358.26 116.993 358.607 115.342H362.247C361.834 118.297 360.793 120.455 359.123 121.825C357.463 123.194 355.333 123.87 352.735 123.87C349.827 123.87 347.5 122.81 345.765 120.68C344.03 118.551 343.167 115.896 343.167 112.697C343.167 108.785 344.114 105.737 346.018 103.56C347.923 101.384 350.343 100.296 353.279 100.296C355.774 100.296 357.819 100.906 359.395 102.125Z" fill="white"/>
<path d="M365.98 92.5568H369.723V103.954C370.614 102.829 371.412 102.041 372.115 101.581C373.325 100.793 374.826 100.399 376.627 100.399C379.864 100.399 382.049 101.534 383.203 103.795C383.832 105.033 384.141 106.74 384.141 108.935V123.232H380.295V109.189C380.295 107.556 380.089 106.356 379.667 105.587C378.991 104.367 377.716 103.757 375.839 103.757C374.282 103.757 372.875 104.292 371.618 105.361C370.352 106.431 369.723 108.448 369.723 111.412V123.232H365.98V92.5568Z" fill="white"/>
<path d="M389.676 92.6599H393.484V96.9H389.676V92.6599ZM389.676 101.037H393.484V123.213H389.676V101.037Z" fill="white"/>
<path d="M400.97 100.934L406.918 119.076L413.137 100.934H417.236L408.831 123.213H404.835L396.618 100.934H400.97Z" fill="white"/>
<path d="M436.72 103.166C438.699 105.08 439.694 107.894 439.694 111.609C439.694 115.202 438.821 118.166 437.076 120.511C435.332 122.856 432.621 124.029 428.943 124.029C425.876 124.029 423.446 122.988 421.636 120.915C419.835 118.841 418.934 116.055 418.934 112.556C418.934 108.814 419.882 105.83 421.786 103.607C423.69 101.384 426.242 100.277 429.441 100.277C432.311 100.296 434.731 101.253 436.72 103.166ZM434.403 117.988C435.322 116.112 435.782 114.02 435.782 111.712C435.782 109.63 435.454 107.941 434.788 106.637C433.737 104.583 431.917 103.56 429.337 103.56C427.049 103.56 425.388 104.433 424.347 106.178C423.306 107.922 422.79 110.033 422.79 112.5C422.79 114.873 423.306 116.853 424.347 118.429C425.388 120.005 427.039 120.802 429.3 120.802C431.776 120.802 433.474 119.864 434.403 117.988Z" fill="white"/>
<path d="M126.942 130.136H130.685V160.698H126.942V130.136Z" fill="white"/>
<path d="M136.304 130.136H140.112V134.376H136.304V130.136ZM136.304 138.522H140.112V160.698H136.304V138.522Z" fill="white"/>
<path d="M148.002 153.709C148.114 154.957 148.424 155.914 148.94 156.58C149.887 157.79 151.519 158.39 153.846 158.39C155.234 158.39 156.454 158.09 157.504 157.49C158.555 156.889 159.09 155.951 159.09 154.694C159.09 153.738 158.667 153.006 157.823 152.509C157.279 152.208 156.21 151.852 154.615 151.449L151.641 150.698C149.737 150.229 148.339 149.704 147.439 149.113C145.825 148.1 145.028 146.702 145.028 144.91C145.028 142.8 145.788 141.092 147.307 139.788C148.827 138.485 150.872 137.837 153.433 137.837C156.791 137.837 159.212 138.822 160.694 140.792C161.622 142.04 162.073 143.391 162.044 144.826H158.508C158.442 143.982 158.142 143.212 157.617 142.518C156.754 141.533 155.262 141.045 153.142 141.045C151.726 141.045 150.656 141.318 149.925 141.862C149.193 142.406 148.836 143.119 148.836 144C148.836 144.976 149.315 145.745 150.272 146.327C150.825 146.674 151.641 146.974 152.729 147.246L155.206 147.846C157.898 148.503 159.699 149.132 160.619 149.741C162.073 150.698 162.804 152.208 162.804 154.253C162.804 156.233 162.054 157.949 160.544 159.394C159.043 160.839 156.744 161.561 153.668 161.561C150.356 161.561 148.002 160.811 146.623 159.3C145.244 157.799 144.503 155.933 144.409 153.709H148.002Z" fill="white"/>
<path d="M167.823 132.19H171.613V138.41H175.168V141.468H171.613V156.008C171.613 156.786 171.875 157.302 172.401 157.565C172.692 157.715 173.179 157.79 173.855 157.79C174.033 157.79 174.23 157.79 174.436 157.781C174.643 157.771 174.887 157.753 175.168 157.724V160.679C174.737 160.801 174.286 160.895 173.827 160.951C173.358 161.008 172.86 161.036 172.316 161.036C170.571 161.036 169.38 160.585 168.761 159.694C168.133 158.803 167.823 157.64 167.823 156.214V141.458H164.802V138.4H167.823V132.19Z" fill="white"/>
<path d="M195.186 140.642C197.166 142.556 198.16 145.37 198.16 149.085C198.16 152.678 197.288 155.642 195.543 157.987C193.798 160.332 191.087 161.505 187.41 161.505C184.342 161.505 181.913 160.464 180.102 158.39C178.301 156.317 177.401 153.531 177.401 150.032C177.401 146.289 178.348 143.306 180.252 141.083C182.157 138.86 184.708 137.753 187.907 137.753C190.777 137.772 193.198 138.729 195.186 140.642ZM192.869 155.464C193.789 153.588 194.248 151.496 194.248 149.188C194.248 147.105 193.92 145.417 193.254 144.113C192.203 142.059 190.383 141.036 187.804 141.036C185.515 141.036 183.855 141.909 182.813 143.653C181.772 145.398 181.256 147.509 181.256 149.976C181.256 152.349 181.772 154.329 182.813 155.905C183.855 157.48 185.506 158.278 187.766 158.278C190.243 158.287 191.941 157.349 192.869 155.464Z" fill="white"/>
<path d="M228.328 139.029C229.81 139.77 230.946 140.727 231.724 141.909C232.475 143.034 232.972 144.338 233.225 145.839C233.45 146.862 233.553 148.503 233.553 150.745H217.222C217.287 153.006 217.822 154.816 218.826 156.186C219.829 157.556 221.368 158.231 223.469 158.231C225.42 158.231 226.987 157.584 228.15 156.299C228.816 155.548 229.285 154.685 229.567 153.7H233.244C233.15 154.516 232.822 155.426 232.278 156.439C231.734 157.443 231.114 158.269 230.439 158.906C229.304 160.013 227.897 160.764 226.218 161.158C225.317 161.383 224.295 161.486 223.16 161.486C220.383 161.486 218.038 160.473 216.105 158.456C214.173 156.439 213.216 153.616 213.216 149.976C213.216 146.402 214.192 143.494 216.133 141.261C218.075 139.029 220.617 137.912 223.751 137.912C225.308 137.912 226.846 138.288 228.328 139.029ZM229.698 147.781C229.548 146.158 229.191 144.864 228.638 143.888C227.615 142.087 225.899 141.186 223.497 141.186C221.781 141.186 220.336 141.805 219.173 143.044C218.01 144.282 217.39 145.867 217.325 147.781H229.698Z" fill="white"/>
<path d="M238.15 138.419H241.705V141.58C242.756 140.276 243.872 139.338 245.054 138.776C246.236 138.203 247.54 137.922 248.985 137.922C252.146 137.922 254.285 139.029 255.392 141.233C256.001 142.443 256.311 144.169 256.311 146.411V160.708H252.502V146.665C252.502 145.304 252.305 144.207 251.902 143.381C251.236 141.993 250.026 141.299 248.281 141.299C247.39 141.299 246.668 141.393 246.095 141.571C245.073 141.881 244.163 142.49 243.394 143.4C242.765 144.132 242.362 144.892 242.174 145.68C241.987 146.468 241.893 147.584 241.893 149.038V160.708H238.15V138.419Z" fill="white"/>
<path d="M273.665 154.77C274.509 152.762 276.507 150.633 279.659 148.381C282.389 146.43 284.162 145.023 284.969 144.179C286.207 142.865 286.817 141.421 286.817 139.854C286.817 138.578 286.46 137.518 285.757 136.674C285.053 135.83 284.04 135.408 282.717 135.408C280.916 135.408 279.687 136.083 279.031 137.425C278.656 138.203 278.43 139.432 278.365 141.13H272.605C272.699 138.56 273.168 136.487 274.003 134.911C275.588 131.899 278.393 130.399 282.436 130.399C285.625 130.399 288.168 131.28 290.063 133.053C291.948 134.826 292.895 137.162 292.895 140.079C292.895 142.312 292.229 144.301 290.897 146.027C290.025 147.181 288.58 148.466 286.582 149.873L284.209 151.561C282.727 152.612 281.704 153.381 281.16 153.85C280.616 154.319 280.147 154.873 279.781 155.492H292.952V160.717H272.296C272.324 158.531 272.793 156.561 273.665 154.77Z" fill="#FFD000"/>
<path d="M325.54 138.147C326.675 138.635 327.613 139.376 328.345 140.379C328.964 141.224 329.349 142.096 329.48 142.997C329.621 143.888 329.686 145.351 329.686 147.377V160.707H323.636V146.899C323.636 145.68 323.43 144.695 323.017 143.944C322.482 142.884 321.46 142.359 319.959 142.359C318.402 142.359 317.22 142.884 316.413 143.935C315.606 144.985 315.203 146.477 315.203 148.428V160.717H309.274V130.155H315.203V140.97C316.056 139.657 317.051 138.738 318.176 138.213C319.302 137.697 320.484 137.434 321.732 137.434C323.139 137.415 324.405 137.659 325.54 138.147Z" fill="#FFD000"/>
<path d="M354.179 157.921C352.266 160.285 349.358 161.467 345.465 161.467C341.572 161.467 338.664 160.285 336.75 157.921C334.836 155.558 333.88 152.715 333.88 149.385C333.88 146.111 334.836 143.278 336.75 140.886C338.664 138.485 341.572 137.293 345.465 137.293C349.358 137.293 352.266 138.494 354.179 140.886C356.093 143.288 357.05 146.121 357.05 149.385C357.05 152.715 356.093 155.558 354.179 157.921ZM349.442 154.648C350.371 153.419 350.84 151.665 350.84 149.394C350.84 147.124 350.371 145.37 349.442 144.151C348.514 142.922 347.181 142.312 345.446 142.312C343.711 142.312 342.379 142.922 341.44 144.151C340.502 145.379 340.033 147.124 340.033 149.394C340.033 151.665 340.502 153.419 341.44 154.648C342.379 155.876 343.711 156.496 345.446 156.496C347.181 156.496 348.514 155.876 349.442 154.648Z" fill="#FFD000"/>
<path d="M373.898 137.49C373.973 137.5 374.142 137.509 374.404 137.518V143.597C374.029 143.559 373.701 143.531 373.41 143.513C373.119 143.503 372.885 143.494 372.706 143.494C370.324 143.494 368.719 144.272 367.903 145.82C367.444 146.693 367.219 148.043 367.219 149.854V160.698H361.243V138.016H366.9V141.965C367.819 140.454 368.616 139.423 369.292 138.869C370.399 137.94 371.843 137.471 373.616 137.471C373.729 137.481 373.823 137.481 373.898 137.49Z" fill="#FFD000"/>
<path d="M386.862 146.908C387.969 146.768 388.757 146.599 389.226 146.392C390.079 146.036 390.501 145.473 390.501 144.704C390.501 143.775 390.173 143.137 389.516 142.781C388.86 142.424 387.903 142.246 386.637 142.246C385.22 142.246 384.207 142.593 383.616 143.287C383.194 143.803 382.912 144.498 382.772 145.37H377.05C377.172 143.391 377.734 141.758 378.719 140.483C380.295 138.485 382.997 137.49 386.824 137.49C389.319 137.49 391.533 137.978 393.466 138.963C395.398 139.948 396.374 141.805 396.374 144.535V154.938C396.374 155.661 396.383 156.533 396.411 157.555C396.449 158.334 396.571 158.859 396.768 159.141C396.965 159.422 397.256 159.647 397.64 159.826V160.698H391.186C391.008 160.238 390.877 159.807 390.811 159.403C390.745 159 390.689 158.54 390.642 158.034C389.817 158.925 388.869 159.676 387.8 160.304C386.515 161.036 385.061 161.411 383.447 161.411C381.383 161.411 379.676 160.829 378.325 159.657C376.984 158.484 376.308 156.824 376.308 154.676C376.308 151.89 377.387 149.873 379.554 148.625C380.746 147.95 382.49 147.462 384.798 147.171L386.862 146.908ZM390.483 149.676C390.107 149.91 389.723 150.098 389.338 150.248C388.954 150.398 388.419 150.529 387.744 150.651L386.393 150.905C385.126 151.13 384.216 151.392 383.663 151.711C382.725 152.255 382.265 153.09 382.265 154.225C382.265 155.238 382.547 155.97 383.119 156.42C383.691 156.871 384.385 157.096 385.201 157.096C386.496 157.096 387.687 156.721 388.785 155.97C389.873 155.22 390.445 153.86 390.483 151.871V149.676Z" fill="#FFD000"/>
<path d="M406.177 153.456C406.298 154.507 406.57 155.257 406.993 155.708C407.734 156.495 409.094 156.889 411.092 156.889C412.265 156.889 413.193 156.711 413.878 156.374C414.563 156.036 414.91 155.511 414.91 154.816C414.91 154.15 414.629 153.644 414.075 153.297C413.522 152.95 411.448 152.349 407.874 151.505C405.295 150.867 403.484 150.07 402.424 149.113C401.374 148.165 400.839 146.815 400.839 145.032C400.839 142.94 401.664 141.139 403.306 139.629C404.957 138.128 407.274 137.368 410.257 137.368C413.09 137.368 415.407 137.931 417.189 139.066C418.972 140.201 420.004 142.152 420.266 144.92H414.338C414.253 144.16 414.038 143.55 413.69 143.109C413.034 142.303 411.927 141.899 410.351 141.899C409.056 141.899 408.137 142.096 407.584 142.5C407.03 142.903 406.758 143.372 406.758 143.916C406.758 144.591 407.049 145.089 407.63 145.389C408.212 145.708 410.276 146.252 413.822 147.03C416.186 147.584 417.959 148.428 419.131 149.544C420.294 150.679 420.876 152.105 420.876 153.813C420.876 156.064 420.041 157.893 418.362 159.319C416.683 160.745 414.103 161.448 410.595 161.448C407.021 161.448 404.385 160.698 402.687 159.188C400.98 157.687 400.135 155.764 400.135 153.437H406.177V153.456Z" fill="#FFD000"/>
<path d="M925.284 90.6995H928.736L939.646 108.185V90.6995H942.423V112.284H939.149L928.08 94.8082V112.284H925.284V90.6995Z" fill="white"/>
<path d="M958.164 98.1195C959.561 99.4703 960.265 101.459 960.265 104.086C960.265 106.628 959.646 108.72 958.417 110.38C957.188 112.04 955.265 112.866 952.666 112.866C950.499 112.866 948.783 112.134 947.507 110.671C946.231 109.207 945.593 107.238 945.593 104.77C945.593 102.125 946.259 100.014 947.61 98.4478C948.952 96.8812 950.753 96.0933 953.023 96.0933C955.049 96.0933 956.766 96.7687 958.164 98.1195ZM956.531 108.588C957.179 107.256 957.507 105.783 957.507 104.161C957.507 102.688 957.272 101.497 956.803 100.577C956.062 99.1232 954.777 98.4009 952.957 98.4009C951.344 98.4009 950.162 99.02 949.43 100.249C948.698 101.487 948.323 102.969 948.323 104.714C948.323 106.393 948.689 107.782 949.43 108.898C950.162 110.014 951.334 110.577 952.929 110.577C954.674 110.577 955.875 109.92 956.531 108.588Z" fill="white"/>
<path d="M971.775 90.6995H974.467V93.7013H971.775V90.6995ZM971.775 96.6187H974.467V112.284H971.775V96.6187Z" fill="white"/>
<path d="M978.463 96.5436H980.977V98.7762C981.718 97.8569 982.506 97.1909 983.341 96.7875C984.176 96.3841 985.105 96.1871 986.118 96.1871C988.351 96.1871 989.861 96.9657 990.649 98.5229C991.08 99.3766 991.296 100.596 991.296 102.181V112.275H988.604V102.35C988.604 101.393 988.463 100.615 988.182 100.024C987.713 99.0482 986.859 98.5511 985.621 98.5511C984.992 98.5511 984.476 98.6167 984.073 98.7387C983.351 98.9544 982.713 99.3859 982.159 100.033C981.718 100.549 981.428 101.093 981.296 101.647C981.165 102.2 981.099 102.988 981.099 104.02V112.266H978.454V96.5436H978.463Z" fill="white"/>
<path d="M1005.6 97.3879C1006.72 98.2509 1007.38 99.733 1007.61 101.844H1005.04C1004.88 100.877 1004.52 100.071 1003.97 99.4235C1003.42 98.7856 1002.52 98.4573 1001.28 98.4573C999.589 98.4573 998.388 99.2828 997.666 100.924C997.197 101.994 996.962 103.307 996.962 104.874C996.962 106.45 997.29 107.782 997.966 108.86C998.632 109.939 999.682 110.474 1001.11 110.474C1002.21 110.474 1003.08 110.136 1003.72 109.47C1004.35 108.795 1004.8 107.885 1005.05 106.712H1007.62C1007.33 108.804 1006.59 110.324 1005.41 111.29C1004.24 112.256 1002.73 112.735 1000.9 112.735C998.848 112.735 997.206 111.984 995.977 110.474C994.748 108.973 994.138 107.087 994.138 104.836C994.138 102.069 994.804 99.9207 996.155 98.3822C997.497 96.8438 999.204 96.0746 1001.29 96.0746C1003.04 96.0933 1004.49 96.5249 1005.6 97.3879Z" fill="white"/>
<path d="M1010.32 90.6995H1012.97V112.284H1010.32V90.6995Z" fill="white"/>
<path d="M1019.58 96.5436V106.994C1019.58 107.8 1019.71 108.457 1019.96 108.964C1020.43 109.902 1021.31 110.371 1022.59 110.371C1024.43 110.371 1025.69 109.545 1026.35 107.904C1026.72 107.022 1026.9 105.812 1026.9 104.273V96.5436H1029.54V112.284H1027.05L1027.07 109.958C1026.73 110.558 1026.3 111.065 1025.8 111.468C1024.79 112.294 1023.57 112.706 1022.12 112.706C1019.88 112.706 1018.35 111.956 1017.53 110.455C1017.09 109.648 1016.88 108.579 1016.88 107.238V96.5342H1019.58V96.5436Z" fill="white"/>
<path d="M1043.51 96.5436H1046.44C1046.06 97.5567 1045.23 99.855 1043.95 103.448C1042.99 106.149 1042.19 108.354 1041.54 110.061C1040.01 114.076 1038.93 116.524 1038.3 117.406C1037.67 118.288 1036.6 118.729 1035.07 118.729C1034.69 118.729 1034.41 118.71 1034.2 118.682C1034.01 118.654 1033.75 118.598 1033.46 118.522V116.112C1033.92 116.243 1034.26 116.318 1034.47 116.346C1034.67 116.374 1034.85 116.393 1035.01 116.393C1035.5 116.393 1035.86 116.309 1036.09 116.149C1036.32 115.99 1036.51 115.793 1036.67 115.558C1036.72 115.483 1036.9 115.08 1037.2 114.357C1037.5 113.635 1037.72 113.091 1037.86 112.744L1032.05 96.5436H1035.05L1039.27 109.358L1043.51 96.5436Z" fill="white"/>
<path d="M1058.53 96.9751C1059.58 97.5004 1060.38 98.1759 1060.92 99.0107C1061.44 99.8081 1061.8 100.727 1061.98 101.787C1062.14 102.51 1062.21 103.673 1062.21 105.258H1050.68C1050.72 106.853 1051.11 108.138 1051.81 109.104C1052.51 110.071 1053.61 110.549 1055.08 110.549C1056.46 110.549 1057.57 110.089 1058.4 109.179C1058.87 108.654 1059.2 108.035 1059.4 107.341H1062C1061.93 107.922 1061.7 108.56 1061.31 109.273C1060.93 109.986 1060.49 110.568 1060.01 111.018C1059.2 111.806 1058.21 112.331 1057.03 112.603C1056.39 112.763 1055.67 112.838 1054.87 112.838C1052.91 112.838 1051.25 112.125 1049.89 110.699C1048.53 109.273 1047.84 107.275 1047.84 104.714C1047.84 102.191 1048.53 100.136 1049.9 98.5605C1051.27 96.9845 1053.06 96.1965 1055.27 96.1965C1056.4 96.1965 1057.48 96.4592 1058.53 96.9751ZM1059.5 103.157C1059.39 102.013 1059.15 101.093 1058.75 100.408C1058.03 99.1327 1056.82 98.4948 1055.12 98.4948C1053.91 98.4948 1052.89 98.9357 1052.06 99.8081C1051.24 100.69 1050.81 101.797 1050.76 103.148H1059.5V103.157Z" fill="white"/>
<path d="M1075.4 107.35C1075.48 108.232 1075.7 108.907 1076.07 109.376C1076.74 110.23 1077.89 110.652 1079.54 110.652C1080.52 110.652 1081.38 110.436 1082.13 110.014C1082.87 109.592 1083.25 108.926 1083.25 108.035C1083.25 107.36 1082.95 106.844 1082.34 106.487C1081.96 106.271 1081.21 106.018 1080.08 105.737L1077.98 105.211C1076.64 104.883 1075.65 104.508 1075.01 104.095C1073.87 103.382 1073.3 102.388 1073.3 101.131C1073.3 99.6393 1073.84 98.4385 1074.92 97.5192C1075.98 96.5999 1077.43 96.1403 1079.24 96.1403C1081.61 96.1403 1083.32 96.8344 1084.37 98.2321C1085.03 99.1139 1085.35 100.061 1085.33 101.084H1082.83C1082.79 100.484 1082.57 99.9394 1082.2 99.4516C1081.59 98.7575 1080.54 98.4104 1079.04 98.4104C1078.04 98.4104 1077.29 98.598 1076.77 98.9826C1076.26 99.3672 1076 99.8738 1076 100.493C1076 101.178 1076.34 101.731 1077.02 102.135C1077.41 102.378 1077.98 102.594 1078.75 102.782L1080.5 103.204C1082.4 103.664 1083.67 104.114 1084.31 104.545C1085.35 105.221 1085.86 106.281 1085.86 107.735C1085.86 109.132 1085.33 110.343 1084.27 111.365C1083.21 112.388 1081.59 112.894 1079.41 112.894C1077.06 112.894 1075.41 112.359 1074.44 111.299C1073.46 110.239 1072.95 108.917 1072.87 107.35H1075.4Z" fill="white"/>
<path d="M1098.68 96.9751C1099.73 97.5004 1100.52 98.1759 1101.07 99.0107C1101.59 99.8081 1101.95 100.727 1102.13 101.787C1102.29 102.51 1102.36 103.673 1102.36 105.258H1090.82C1090.87 106.853 1091.26 108.138 1091.96 109.104C1092.66 110.071 1093.76 110.549 1095.23 110.549C1096.61 110.549 1097.72 110.089 1098.55 109.179C1099.01 108.654 1099.35 108.035 1099.55 107.341H1102.15C1102.08 107.922 1101.85 108.56 1101.46 109.273C1101.08 109.986 1100.64 110.568 1100.16 111.018C1099.35 111.806 1098.36 112.331 1097.18 112.603C1096.54 112.763 1095.82 112.838 1095.02 112.838C1093.06 112.838 1091.4 112.125 1090.04 110.699C1088.68 109.273 1087.99 107.275 1087.99 104.714C1087.99 102.191 1088.68 100.136 1090.05 98.5605C1091.42 96.9845 1093.21 96.1965 1095.42 96.1965C1096.55 96.1965 1097.64 96.4592 1098.68 96.9751ZM1099.65 103.157C1099.54 102.013 1099.3 101.093 1098.9 100.408C1098.18 99.1327 1096.97 98.4948 1095.27 98.4948C1094.06 98.4948 1093.04 98.9357 1092.21 99.8081C1091.39 100.69 1090.96 101.797 1090.91 103.148H1099.65V103.157Z" fill="white"/>
<path d="M1105.69 96.5436H1108.21V99.264C1108.41 98.7387 1108.92 98.0914 1109.72 97.3316C1110.52 96.5718 1111.44 96.1965 1112.49 96.1965C1112.54 96.1965 1112.63 96.2059 1112.75 96.2153C1112.87 96.2247 1113.07 96.2434 1113.35 96.2716V99.067C1113.19 99.0389 1113.05 99.0201 1112.92 99.0107C1112.79 99.0014 1112.64 98.992 1112.49 98.992C1111.15 98.992 1110.13 99.4235 1109.42 100.277C1108.7 101.131 1108.35 102.125 1108.35 103.241V112.294H1105.7V96.5436H1105.69Z" fill="white"/>
<path d="M1116.93 96.5436L1121.13 109.358L1125.52 96.5436H1128.42L1122.48 112.284H1119.66L1113.85 96.5436H1116.93Z" fill="white"/>
<path d="M1130.69 90.6995H1133.39V93.7013H1130.69V90.6995ZM1130.69 96.6187H1133.39V112.284H1130.69V96.6187Z" fill="white"/>
<path d="M1147.78 97.3879C1148.89 98.2509 1149.56 99.733 1149.78 101.844H1147.21C1147.05 100.877 1146.7 100.071 1146.14 99.4235C1145.59 98.7856 1144.69 98.4573 1143.45 98.4573C1141.76 98.4573 1140.56 99.2828 1139.84 100.924C1139.37 101.994 1139.14 103.307 1139.14 104.874C1139.14 106.45 1139.46 107.782 1140.14 108.86C1140.81 109.939 1141.86 110.474 1143.28 110.474C1144.38 110.474 1145.25 110.136 1145.89 109.47C1146.53 108.795 1146.98 107.885 1147.22 106.712H1149.79C1149.5 108.804 1148.76 110.324 1147.59 111.29C1146.41 112.256 1144.9 112.735 1143.08 112.735C1141.02 112.735 1139.38 111.984 1138.15 110.474C1136.92 108.973 1136.31 107.087 1136.31 104.836C1136.31 102.069 1136.98 99.9207 1138.33 98.3822C1139.67 96.8438 1141.38 96.0746 1143.46 96.0746C1145.22 96.0933 1146.66 96.5249 1147.78 97.3879Z" fill="white"/>
<path d="M1152.43 90.6995H1155.12V93.7013H1152.43V90.6995ZM1152.43 96.6187H1155.12V112.284H1152.43V96.6187Z" fill="white"/>
<path d="M1170.61 98.1195C1172.01 99.4703 1172.71 101.459 1172.71 104.086C1172.71 106.628 1172.09 108.72 1170.86 110.38C1169.63 112.04 1167.71 112.866 1165.11 112.866C1162.94 112.866 1161.23 112.134 1159.95 110.671C1158.68 109.207 1158.04 107.238 1158.04 104.77C1158.04 102.125 1158.7 100.014 1160.05 98.4478C1161.4 96.8812 1163.2 96.0933 1165.47 96.0933C1167.49 96.0933 1169.2 96.7687 1170.61 98.1195ZM1168.97 108.588C1169.61 107.256 1169.94 105.783 1169.94 104.161C1169.94 102.688 1169.71 101.497 1169.24 100.577C1168.5 99.1232 1167.21 98.4009 1165.39 98.4009C1163.78 98.4009 1162.6 99.02 1161.86 100.249C1161.13 101.487 1160.76 102.969 1160.76 104.714C1160.76 106.393 1161.12 107.782 1161.86 108.898C1162.6 110.014 1163.77 110.577 1165.36 110.577C1167.11 110.577 1168.32 109.92 1168.97 108.588Z" fill="white"/>
<path d="M936.138 126.89C936.719 127.256 937.376 127.894 938.117 128.794V118.963H941.26V145.755H938.314V143.044C937.554 144.244 936.644 145.107 935.603 145.642C934.562 146.177 933.37 146.439 932.02 146.439C929.853 146.439 927.977 145.529 926.382 143.7C924.796 141.88 923.999 139.451 923.999 136.421C923.999 133.588 924.721 131.13 926.175 129.048C927.62 126.974 929.693 125.933 932.385 125.933C933.877 125.943 935.125 126.262 936.138 126.89ZM928.793 141.486C929.674 142.893 931.091 143.597 933.042 143.597C934.562 143.597 935.8 142.95 936.776 141.646C937.751 140.342 938.239 138.475 938.239 136.036C938.239 133.578 937.732 131.759 936.729 130.577C935.725 129.395 934.477 128.804 933.005 128.804C931.354 128.804 930.021 129.432 928.999 130.699C927.977 131.965 927.461 133.813 927.461 136.261C927.461 138.334 927.911 140.079 928.793 141.486Z" fill="#FFD000"/>
<path d="M958.22 126.824C959.514 127.472 960.499 128.316 961.184 129.338C961.841 130.323 962.272 131.468 962.488 132.772C962.685 133.672 962.779 135.098 962.779 137.059H948.511C948.567 139.038 949.036 140.614 949.909 141.815C950.781 143.006 952.132 143.606 953.961 143.606C955.668 143.606 957.029 143.044 958.051 141.918C958.633 141.261 959.045 140.511 959.289 139.648H962.507C962.422 140.361 962.141 141.158 961.663 142.04C961.184 142.922 960.649 143.635 960.058 144.197C959.064 145.164 957.835 145.82 956.372 146.158C955.584 146.355 954.693 146.449 953.698 146.449C951.278 146.449 949.224 145.567 947.535 143.803C945.856 142.04 945.012 139.573 945.012 136.393C945.012 133.269 945.856 130.727 947.554 128.776C949.252 126.824 951.466 125.849 954.205 125.849C955.584 125.858 956.925 126.177 958.22 126.824ZM959.421 134.47C959.289 133.053 958.98 131.918 958.492 131.074C957.591 129.498 956.1 128.71 953.999 128.71C952.498 128.71 951.241 129.254 950.218 130.333C949.196 131.421 948.661 132.8 948.605 134.47H959.421Z" fill="#FFD000"/>
<path d="M985.349 118.72C985.611 118.738 985.977 118.766 986.437 118.804V123.025C986.146 122.988 985.658 122.96 984.973 122.941C984.289 122.922 983.82 123.072 983.557 123.391C983.294 123.71 983.163 124.067 983.163 124.451C983.163 124.836 983.163 125.399 983.163 126.121H986.559V129.77H983.163V145.745H978.022V129.77H975.114V126.121H977.947V124.845C977.947 122.725 978.304 121.262 979.017 120.464C979.767 119.273 981.578 118.682 984.448 118.682C984.786 118.691 985.086 118.701 985.349 118.72Z" fill="#FFD000"/>
<path d="M997.393 133.71C998.36 133.588 999.045 133.438 999.467 133.26C1000.21 132.941 1000.58 132.453 1000.58 131.787C1000.58 130.971 1000.3 130.417 999.729 130.108C999.157 129.798 998.322 129.648 997.215 129.648C995.977 129.648 995.095 129.948 994.579 130.558C994.213 131.008 993.97 131.609 993.838 132.378H988.838C988.951 130.642 989.439 129.226 990.302 128.11C991.681 126.365 994.035 125.492 997.384 125.492C999.56 125.492 1001.49 125.924 1003.19 126.787C1004.88 127.65 1005.72 129.273 1005.72 131.656V140.745C1005.72 141.374 1005.73 142.143 1005.76 143.034C1005.8 143.71 1005.9 144.169 1006.07 144.413C1006.24 144.657 1006.49 144.854 1006.83 145.014V145.773H1001.19C1001.03 145.37 1000.93 144.995 1000.86 144.648C1000.8 144.301 1000.75 143.897 1000.71 143.447C999.992 144.226 999.166 144.882 998.228 145.426C997.103 146.064 995.836 146.393 994.429 146.393C992.628 146.393 991.137 145.877 989.964 144.854C988.791 143.832 988.2 142.378 988.2 140.502C988.2 138.063 989.148 136.299 991.033 135.211C992.075 134.62 993.594 134.198 995.611 133.935L997.393 133.71ZM1000.56 136.121C1000.24 136.327 999.898 136.496 999.56 136.618C999.223 136.74 998.763 136.862 998.172 136.974L996.99 137.19C995.883 137.387 995.095 137.622 994.607 137.903C993.791 138.372 993.388 139.113 993.388 140.098C993.388 140.98 993.641 141.618 994.138 142.012C994.636 142.406 995.245 142.603 995.958 142.603C997.093 142.603 998.135 142.274 999.082 141.618C1000.04 140.961 1000.53 139.77 1000.56 138.034V136.121Z" fill="#FFD000"/>
<path d="M1022.1 133.053C1022.01 132.312 1021.76 131.646 1021.35 131.055C1020.77 130.258 1019.86 129.854 1018.64 129.854C1016.89 129.854 1015.7 130.717 1015.05 132.453C1014.71 133.372 1014.54 134.592 1014.54 136.111C1014.54 137.565 1014.71 138.729 1015.05 139.61C1015.67 141.261 1016.83 142.087 1018.55 142.087C1019.76 142.087 1020.62 141.758 1021.14 141.102C1021.64 140.445 1021.95 139.601 1022.06 138.56H1027.36C1027.23 140.136 1026.66 141.627 1025.65 143.034C1024.03 145.304 1021.61 146.43 1018.43 146.43C1015.24 146.43 1012.89 145.483 1011.38 143.597C1009.88 141.702 1009.13 139.254 1009.13 136.243C1009.13 132.847 1009.95 130.201 1011.62 128.307C1013.28 126.412 1015.57 125.474 1018.5 125.474C1020.99 125.474 1023.02 126.027 1024.61 127.143C1026.19 128.26 1027.13 130.23 1027.42 133.053H1022.1Z" fill="#FFD000"/>
<path d="M1028.92 129.817V126.13H1031.68V120.605H1036.8V126.13H1040.02V129.817H1036.8V140.286C1036.8 141.102 1036.9 141.599 1037.11 141.805C1037.32 142.002 1037.95 142.105 1039.01 142.105C1039.17 142.105 1039.33 142.105 1039.5 142.096C1039.68 142.087 1039.85 142.077 1040.02 142.068V145.942L1037.56 146.036C1035.11 146.12 1033.44 145.698 1032.54 144.76C1031.96 144.169 1031.67 143.25 1031.67 142.012V129.817H1028.92Z" fill="#FFD000"/>
<path d="M1048.51 125.943V137.884C1048.51 139.01 1048.64 139.864 1048.9 140.426C1049.37 141.43 1050.29 141.937 1051.67 141.937C1053.43 141.937 1054.63 141.224 1055.29 139.788C1055.63 139.01 1055.8 137.987 1055.8 136.721V125.943H1061.05V145.755H1056.01V142.959C1055.97 143.015 1055.84 143.203 1055.65 143.503C1055.45 143.803 1055.23 144.075 1054.96 144.301C1054.16 145.023 1053.37 145.52 1052.62 145.792C1051.86 146.055 1050.98 146.195 1049.96 146.195C1047.04 146.195 1045.07 145.145 1044.05 143.034C1043.48 141.871 1043.2 140.154 1043.2 137.894V125.943H1048.51Z" fill="#FFD000"/>
<path d="M1077.09 125.483C1077.16 125.492 1077.31 125.502 1077.53 125.511V130.821C1077.2 130.783 1076.91 130.764 1076.66 130.746C1076.41 130.736 1076.2 130.727 1076.04 130.727C1073.96 130.727 1072.56 131.402 1071.84 132.762C1071.44 133.522 1071.24 134.704 1071.24 136.29V145.755H1066.02V125.943H1070.97V129.395C1071.76 128.072 1072.46 127.172 1073.06 126.684C1074.02 125.868 1075.29 125.464 1076.84 125.464C1076.94 125.474 1077.03 125.474 1077.09 125.483Z" fill="#FFD000"/>
<path d="M1088.41 133.71C1089.38 133.588 1090.07 133.438 1090.49 133.26C1091.23 132.941 1091.6 132.453 1091.6 131.787C1091.6 130.971 1091.32 130.417 1090.75 130.108C1090.18 129.798 1089.34 129.648 1088.24 129.648C1087 129.648 1086.12 129.948 1085.6 130.558C1085.23 131.008 1084.99 131.609 1084.86 132.378H1079.86C1079.97 130.642 1080.46 129.226 1081.32 128.11C1082.7 126.365 1085.06 125.492 1088.4 125.492C1090.58 125.492 1092.51 125.924 1094.21 126.787C1095.9 127.65 1096.74 129.273 1096.74 131.656V140.745C1096.74 141.374 1096.75 142.143 1096.78 143.034C1096.82 143.71 1096.92 144.169 1097.09 144.413C1097.26 144.657 1097.51 144.854 1097.85 145.014V145.773H1092.21C1092.05 145.37 1091.95 144.995 1091.88 144.648C1091.82 144.301 1091.77 143.897 1091.73 143.447C1091.01 144.226 1090.19 144.882 1089.25 145.426C1088.12 146.064 1086.86 146.393 1085.45 146.393C1083.65 146.393 1082.16 145.877 1080.98 144.854C1079.81 143.832 1079.22 142.378 1079.22 140.502C1079.22 138.063 1080.17 136.299 1082.05 135.211C1083.1 134.62 1084.61 134.198 1086.63 133.935L1088.41 133.71ZM1091.58 136.121C1091.26 136.327 1090.92 136.496 1090.58 136.618C1090.24 136.74 1089.78 136.862 1089.19 136.974L1088.01 137.19C1086.9 137.387 1086.12 137.622 1085.63 137.903C1084.81 138.372 1084.41 139.113 1084.41 140.098C1084.41 140.98 1084.66 141.618 1085.16 142.012C1085.66 142.406 1086.27 142.603 1086.98 142.603C1088.11 142.603 1089.16 142.274 1090.1 141.618C1091.06 140.961 1091.55 139.77 1091.58 138.034V136.121Z" fill="#FFD000"/>
<path d="M1113.12 133.053C1113.03 132.312 1112.78 131.646 1112.37 131.055C1111.79 130.258 1110.88 129.854 1109.66 129.854C1107.91 129.854 1106.72 130.717 1106.07 132.453C1105.73 133.372 1105.56 134.592 1105.56 136.111C1105.56 137.565 1105.73 138.729 1106.07 139.61C1106.69 141.261 1107.85 142.087 1109.57 142.087C1110.78 142.087 1111.64 141.758 1112.16 141.102C1112.66 140.445 1112.97 139.601 1113.09 138.56H1118.38C1118.25 140.136 1117.68 141.627 1116.67 143.034C1115.05 145.304 1112.64 146.43 1109.45 146.43C1106.26 146.43 1103.91 145.483 1102.4 143.597C1100.9 141.702 1100.15 139.254 1100.15 136.243C1100.15 132.847 1100.97 130.201 1102.64 128.307C1104.31 126.412 1106.59 125.474 1109.52 125.474C1112.01 125.474 1114.04 126.027 1115.63 127.143C1117.21 128.26 1118.15 130.23 1118.44 133.053H1113.12Z" fill="#FFD000"/>
<path d="M1127.3 123.588H1122.04V118.804H1127.3V123.588ZM1122.04 125.943H1127.3V145.755H1122.04V125.943Z" fill="#FFD000"/>
<path d="M1148.84 143.334C1147.17 145.398 1144.62 146.43 1141.22 146.43C1137.81 146.43 1135.28 145.398 1133.6 143.334C1131.93 141.271 1131.1 138.785 1131.1 135.877C1131.1 133.016 1131.93 130.549 1133.6 128.447C1135.27 126.355 1137.81 125.305 1141.22 125.305C1144.62 125.305 1147.17 126.355 1148.84 128.447C1150.5 130.539 1151.34 133.016 1151.34 135.877C1151.34 138.785 1150.5 141.271 1148.84 143.334ZM1144.69 140.473C1145.5 139.395 1145.91 137.866 1145.91 135.877C1145.91 133.888 1145.5 132.368 1144.69 131.299C1143.87 130.23 1142.71 129.695 1141.2 129.695C1139.69 129.695 1138.52 130.23 1137.7 131.299C1136.88 132.368 1136.47 133.897 1136.47 135.877C1136.47 137.866 1136.88 139.395 1137.7 140.473C1138.52 141.552 1139.69 142.087 1141.2 142.087C1142.72 142.087 1143.88 141.552 1144.69 140.473ZM1147.42 117.838L1141.89 123.269H1138.15L1141.64 117.838H1147.42Z" fill="#FFD000"/>
<path d="M1171.03 127.087C1172.32 128.157 1172.97 129.939 1172.97 132.425V145.764H1167.66V133.71C1167.66 132.669 1167.52 131.871 1167.25 131.308C1166.74 130.295 1165.79 129.779 1164.36 129.779C1162.62 129.779 1161.41 130.52 1160.77 132.012C1160.43 132.8 1160.26 133.804 1160.26 135.033V145.755H1155.08V125.98H1160.1V128.869C1160.77 127.856 1161.4 127.115 1161.99 126.674C1163.05 125.877 1164.4 125.474 1166.02 125.474C1168.06 125.474 1169.73 126.008 1171.03 127.087Z" fill="#FFD000"/>
<path d="M938.323 157.799C939.702 158.419 940.847 159.394 941.747 160.726C942.554 161.899 943.089 163.268 943.323 164.826C943.464 165.735 943.52 167.049 943.492 168.756H929.065C929.14 170.745 929.834 172.133 931.138 172.94C931.926 173.437 932.883 173.681 933.99 173.681C935.172 173.681 936.128 173.381 936.869 172.771C937.273 172.443 937.629 171.992 937.939 171.411H943.229C943.089 172.583 942.451 173.784 941.306 174.994C939.534 176.917 937.048 177.883 933.849 177.883C931.213 177.883 928.886 177.067 926.87 175.444C924.853 173.822 923.849 171.176 923.849 167.508C923.849 164.075 924.759 161.448 926.579 159.61C928.399 157.781 930.763 156.861 933.661 156.861C935.387 156.871 936.935 157.18 938.323 157.799ZM930.575 162.274C929.843 163.024 929.384 164.047 929.196 165.341H938.117C938.023 163.963 937.564 162.921 936.738 162.208C935.913 161.495 934.89 161.139 933.671 161.139C932.339 161.139 931.307 161.524 930.575 162.274Z" fill="#FFD000"/>
<path d="M951.4 177.208H946.222V150.417H951.4V177.208Z" fill="#FFD000"/>
<path d="M969.364 157.799C970.743 158.419 971.887 159.394 972.788 160.726C973.595 161.899 974.129 163.268 974.364 164.826C974.505 165.735 974.561 167.049 974.533 168.756H960.105C960.18 170.745 960.875 172.133 962.178 172.94C962.966 173.437 963.923 173.681 965.03 173.681C966.212 173.681 967.169 173.381 967.91 172.771C968.313 172.443 968.67 171.992 968.979 171.411H974.27C974.129 172.583 973.492 173.784 972.347 174.994C970.574 176.917 968.088 177.883 964.889 177.883C962.254 177.883 959.927 177.067 957.91 175.444C955.893 173.822 954.89 171.176 954.89 167.508C954.89 164.075 955.8 161.448 957.619 159.61C959.439 157.781 961.803 156.861 964.702 156.861C966.428 156.871 967.985 157.18 969.364 157.799ZM961.616 162.274C960.884 163.024 960.424 164.047 960.237 165.341H969.158C969.064 163.963 968.604 162.921 967.779 162.208C966.953 161.495 965.931 161.139 964.711 161.139C963.379 161.139 962.347 161.524 961.616 162.274Z" fill="#FFD000"/>
<path d="M989.007 164.507C988.913 163.766 988.66 163.1 988.257 162.509C987.675 161.711 986.765 161.308 985.546 161.308C983.792 161.308 982.6 162.171 981.953 163.906C981.615 164.826 981.446 166.045 981.446 167.565C981.446 169.019 981.615 170.182 981.953 171.064C982.572 172.715 983.735 173.54 985.452 173.54C986.662 173.54 987.525 173.212 988.041 172.555C988.548 171.899 988.857 171.054 988.97 170.013H994.26C994.138 171.589 993.566 173.081 992.553 174.488C990.93 176.758 988.519 177.884 985.33 177.884C982.141 177.884 979.795 176.936 978.285 175.051C976.784 173.156 976.034 170.707 976.034 167.696C976.034 164.3 976.859 161.655 978.529 159.76C980.189 157.865 982.478 156.927 985.405 156.927C987.891 156.927 989.927 157.481 991.512 158.597C993.097 159.713 994.035 161.683 994.326 164.507H989.007Z" fill="#FFD000"/>
<path d="M995.818 161.27V157.584H998.575V152.058H1003.7V157.584H1006.91V161.27H1003.7V171.739C1003.7 172.555 1003.8 173.052 1004.01 173.259C1004.21 173.456 1004.84 173.559 1005.9 173.559C1006.06 173.559 1006.22 173.559 1006.4 173.55C1006.58 173.54 1006.75 173.531 1006.91 173.521V177.396L1004.46 177.489C1002.01 177.574 1000.34 177.152 999.439 176.214C998.857 175.623 998.566 174.703 998.566 173.465V161.27H995.818Z" fill="#FFD000"/>
<path d="M1021.26 156.936C1021.32 156.946 1021.47 156.955 1021.7 156.965V162.274C1021.37 162.237 1021.08 162.218 1020.83 162.199C1020.57 162.19 1020.37 162.18 1020.21 162.18C1018.12 162.18 1016.73 162.856 1016 164.216C1015.6 164.976 1015.4 166.158 1015.4 167.743V177.208H1010.19V157.396H1015.13V160.848C1015.93 159.526 1016.62 158.625 1017.22 158.137C1018.19 157.321 1019.46 156.918 1021 156.918C1021.11 156.927 1021.19 156.927 1021.26 156.936Z" fill="#FFD000"/>
<path d="M1041.26 174.788C1039.59 176.852 1037.05 177.883 1033.64 177.883C1030.24 177.883 1027.7 176.852 1026.02 174.788C1024.35 172.724 1023.52 170.238 1023.52 167.33C1023.52 164.469 1024.35 162.002 1026.02 159.901C1027.69 157.809 1030.24 156.758 1033.64 156.758C1037.05 156.758 1039.59 157.809 1041.26 159.901C1042.93 161.993 1043.76 164.469 1043.76 167.33C1043.76 170.238 1042.93 172.724 1041.26 174.788ZM1037.11 171.927C1037.93 170.848 1038.33 169.319 1038.33 167.33C1038.33 165.341 1037.93 163.822 1037.11 162.752C1036.3 161.683 1035.13 161.148 1033.62 161.148C1032.11 161.148 1030.94 161.683 1030.12 162.752C1029.31 163.822 1028.89 165.351 1028.89 167.33C1028.89 169.319 1029.31 170.848 1030.12 171.927C1030.94 173.005 1032.11 173.54 1033.62 173.54C1035.14 173.54 1036.3 172.996 1037.11 171.927ZM1039.84 149.291L1034.32 154.723H1030.57L1034.06 149.291H1039.84Z" fill="#FFD000"/>
<path d="M1063.45 158.531C1064.75 159.601 1065.39 161.383 1065.39 163.869V177.208H1060.08V165.154C1060.08 164.113 1059.94 163.315 1059.67 162.753C1059.17 161.739 1058.21 161.223 1056.78 161.223C1055.04 161.223 1053.84 161.965 1053.19 163.456C1052.85 164.244 1052.68 165.248 1052.68 166.477V177.199H1047.51V157.424H1052.52V160.314C1053.19 159.3 1053.82 158.559 1054.41 158.118C1055.47 157.321 1056.82 156.918 1058.44 156.918C1060.48 156.927 1062.15 157.462 1063.45 158.531Z" fill="#FFD000"/>
<path d="M1075.53 155.032H1070.28V150.248H1075.53V155.032ZM1070.28 157.396H1075.53V177.208H1070.28V157.396Z" fill="#FFD000"/>
<path d="M1092.4 164.507C1092.31 163.766 1092.05 163.1 1091.65 162.509C1091.07 161.711 1090.16 161.308 1088.94 161.308C1087.19 161.308 1085.99 162.171 1085.35 163.906C1085.01 164.826 1084.84 166.045 1084.84 167.565C1084.84 169.019 1085.01 170.182 1085.35 171.064C1085.97 172.715 1087.13 173.54 1088.85 173.54C1090.06 173.54 1090.92 173.212 1091.43 172.555C1091.94 171.899 1092.25 171.054 1092.36 170.013H1097.65C1097.53 171.589 1096.96 173.081 1095.95 174.488C1094.32 176.758 1091.91 177.884 1088.72 177.884C1085.53 177.884 1083.19 176.936 1081.68 175.051C1080.18 173.156 1079.43 170.707 1079.43 167.696C1079.43 164.3 1080.25 161.655 1081.92 159.76C1083.58 157.865 1085.87 156.927 1088.8 156.927C1091.28 156.927 1093.32 157.481 1094.91 158.597C1096.49 159.713 1097.43 161.683 1097.72 164.507H1092.4Z" fill="#FFD000"/>
<path d="M1109.1 165.154C1110.06 165.032 1110.75 164.882 1111.17 164.704C1111.91 164.385 1112.29 163.897 1112.29 163.231C1112.29 162.415 1112.01 161.861 1111.43 161.552C1110.86 161.242 1110.03 161.092 1108.92 161.092C1107.68 161.092 1106.8 161.392 1106.28 162.002C1105.92 162.452 1105.67 163.053 1105.54 163.822H1100.54C1100.66 162.087 1101.14 160.67 1102.01 159.554C1103.39 157.809 1105.74 156.937 1109.09 156.937C1111.27 156.937 1113.2 157.368 1114.9 158.231C1116.58 159.094 1117.43 160.717 1117.43 163.1V172.189C1117.43 172.818 1117.44 173.587 1117.47 174.478C1117.5 175.154 1117.61 175.613 1117.78 175.857C1117.94 176.101 1118.2 176.298 1118.54 176.458V177.218H1112.9C1112.74 176.814 1112.64 176.439 1112.57 176.092C1112.5 175.745 1112.46 175.341 1112.42 174.891C1111.7 175.67 1110.87 176.326 1109.93 176.87C1108.81 177.508 1107.54 177.837 1106.13 177.837C1104.33 177.837 1102.84 177.321 1101.67 176.298C1100.5 175.276 1099.91 173.822 1099.91 171.946C1099.91 169.507 1100.85 167.743 1102.74 166.655C1103.78 166.064 1105.3 165.642 1107.32 165.379L1109.1 165.154ZM1112.27 167.574C1111.94 167.781 1111.6 167.949 1111.27 168.071C1110.93 168.193 1110.47 168.315 1109.88 168.428L1108.7 168.644C1107.59 168.841 1106.8 169.075 1106.31 169.357C1105.5 169.826 1105.09 170.567 1105.09 171.552C1105.09 172.433 1105.35 173.071 1105.84 173.465C1106.34 173.859 1106.95 174.056 1107.66 174.056C1108.8 174.056 1109.84 173.728 1110.79 173.071C1111.74 172.415 1112.23 171.223 1112.27 169.488V167.574Z" fill="#FFD000"/>
<path d="M1307.02 1.08582H1237.2V8.52469H1307.02V268.885H1237.2V276.324H1307.02H1314.01V268.885V8.52469V1.08582H1307.02Z" fill="#FFD000"/>
<path d="M48.9886 268.885V8.52469H118.809V1.08582H48.9886H42V8.52469V268.885V276.324H48.9886H118.809V268.885H48.9886Z" fill="#FFD000"/>
<path d="M1237.2 1.08582H1230.21V8.52469H1237.2V1.08582Z" fill="#FFD000"/>
<path d="M125.798 1.08582H118.809V8.52469H125.798V1.08582Z" fill="#FFD000"/>
<path d="M1237.2 268.885H1230.21V276.324H1237.2V268.885Z" fill="#FFD000"/>
<path d="M125.798 268.885H118.809V276.324H125.798V268.885Z" fill="#FFD000"/>
<path d="M804.733 163.221H806.956V179.459H804.733V163.221Z" fill="white"/>
<path d="M810.258 167.621H812.153V169.3C812.716 168.606 813.307 168.109 813.936 167.809C814.564 167.508 815.258 167.358 816.028 167.358C817.707 167.358 818.842 167.94 819.433 169.112C819.761 169.75 819.921 170.67 819.921 171.861V179.45H817.894V171.992C817.894 171.27 817.791 170.688 817.575 170.248C817.219 169.506 816.581 169.141 815.652 169.141C815.183 169.141 814.789 169.188 814.489 169.281C813.945 169.441 813.467 169.769 813.054 170.257C812.726 170.651 812.51 171.054 812.407 171.467C812.303 171.88 812.257 172.48 812.257 173.249V179.45H810.268V167.621H810.258Z" fill="white"/>
<path d="M830.671 168.249C831.506 168.897 832.012 170.013 832.181 171.598H830.249C830.127 170.867 829.864 170.266 829.442 169.778C829.02 169.3 828.344 169.056 827.416 169.056C826.149 169.056 825.239 169.675 824.695 170.913C824.339 171.72 824.161 172.705 824.161 173.887C824.161 175.069 824.414 176.073 824.911 176.88C825.408 177.686 826.206 178.099 827.275 178.099C828.1 178.099 828.757 177.846 829.236 177.339C829.714 176.833 830.052 176.148 830.239 175.266H832.172C831.947 176.833 831.402 177.987 830.511 178.709C829.63 179.431 828.494 179.797 827.116 179.797C825.568 179.797 824.339 179.234 823.41 178.099C822.491 176.964 822.031 175.557 822.031 173.859C822.031 171.786 822.538 170.163 823.541 169.009C824.555 167.855 825.84 167.274 827.397 167.274C828.748 167.283 829.836 167.602 830.671 168.249Z" fill="white"/>
<path d="M834.226 163.221H836.215V179.459H834.226V163.221Z" fill="white"/>
<path d="M841.187 167.621V175.482C841.187 176.082 841.28 176.58 841.477 176.964C841.834 177.668 842.49 178.024 843.457 178.024C844.845 178.024 845.783 177.405 846.29 176.167C846.562 175.501 846.702 174.591 846.702 173.437V167.621H848.691V179.459H846.815L846.834 177.715C846.58 178.165 846.252 178.54 845.877 178.85C845.117 179.469 844.198 179.778 843.11 179.778C841.421 179.778 840.277 179.215 839.657 178.09C839.329 177.489 839.16 176.683 839.16 175.67V167.621H841.187Z" fill="white"/>
<path d="M859.179 167.621H861.374C861.092 168.381 860.473 170.107 859.507 172.818C858.785 174.853 858.184 176.504 857.697 177.79C856.552 180.81 855.736 182.649 855.267 183.315C854.798 183.981 853.982 184.309 852.837 184.309C852.556 184.309 852.34 184.3 852.19 184.272C852.04 184.253 851.852 184.206 851.637 184.15V182.339C851.984 182.433 852.237 182.499 852.387 182.517C852.547 182.536 852.678 182.555 852.8 182.555C853.166 182.555 853.438 182.499 853.616 182.377C853.785 182.255 853.935 182.105 854.047 181.926C854.085 181.87 854.216 181.57 854.441 181.017C854.667 180.472 854.835 180.069 854.939 179.797L850.558 167.621H852.809L855.98 177.255L859.179 167.621Z" fill="white"/>
<path d="M870.473 167.949C871.261 168.343 871.861 168.85 872.274 169.478C872.668 170.079 872.94 170.773 873.071 171.57C873.193 172.114 873.25 172.987 873.25 174.178H864.573C864.61 175.379 864.891 176.345 865.426 177.067C865.961 177.79 866.777 178.155 867.893 178.155C868.935 178.155 869.76 177.808 870.379 177.124C870.736 176.73 870.98 176.27 871.13 175.745H873.081C873.025 176.176 872.856 176.664 872.565 177.199C872.274 177.733 871.946 178.165 871.589 178.512C870.989 179.103 870.238 179.497 869.347 179.703C868.869 179.825 868.325 179.881 867.724 179.881C866.252 179.881 865.004 179.347 863.982 178.277C862.959 177.208 862.443 175.707 862.443 173.775C862.443 171.87 862.959 170.332 863.991 169.141C865.023 167.959 866.374 167.358 868.034 167.358C868.869 167.358 869.685 167.555 870.473 167.949ZM871.195 172.593C871.111 171.73 870.923 171.045 870.632 170.529C870.088 169.572 869.178 169.094 867.903 169.094C866.993 169.094 866.224 169.422 865.604 170.079C864.985 170.735 864.657 171.58 864.619 172.593H871.195Z" fill="white"/>
<path d="M804.733 190.378H806.956V206.616H804.733V190.378Z" fill="white"/>
<path d="M811.806 190.378L816.468 204.206L821.074 190.378H823.542L817.622 206.616H815.287L809.377 190.378H811.806Z" fill="white"/>
<path d="M828.673 190.378H831.159L837.05 206.616H834.639L832.997 201.757H826.581L824.827 206.616H822.575L828.673 190.378ZM832.284 199.965L829.817 192.789L827.2 199.965H832.284Z" fill="white"/>
<path d="M545.62 231.091H557.618V233.211H547.965V238.464H556.455V240.528H547.965V248.389H545.62V231.091Z" fill="white"/>
<path d="M564.269 231.091H566.633V248.379H564.269V231.091Z" fill="white"/>
<path d="M574.334 231.091H582.336C583.659 231.091 584.738 231.288 585.601 231.663C587.224 232.404 588.04 233.764 588.04 235.743C588.04 236.775 587.824 237.629 587.402 238.286C586.97 238.942 586.379 239.477 585.61 239.871C586.285 240.143 586.792 240.509 587.139 240.95C587.477 241.4 587.674 242.122 587.711 243.126L587.796 245.443C587.824 246.1 587.871 246.597 587.965 246.916C588.105 247.469 588.359 247.816 588.715 247.976V248.36H585.845C585.77 248.21 585.704 248.023 585.657 247.788C585.61 247.554 585.573 247.094 585.535 246.419L585.394 243.539C585.338 242.404 584.916 241.653 584.137 241.269C583.687 241.053 582.983 240.95 582.027 240.95H576.698V248.37H574.353V231.091H574.334ZM582.092 239.008C583.19 239.008 584.062 238.792 584.7 238.351C585.338 237.91 585.657 237.122 585.657 235.969C585.657 234.74 585.207 233.895 584.316 233.445C583.837 233.211 583.199 233.089 582.402 233.089H576.68V238.998H582.092V239.008Z" fill="white"/>
<path d="M595.019 231.091H598.377L603.349 245.715L608.283 231.091H611.604V248.379H609.381V238.173C609.381 237.817 609.39 237.235 609.409 236.419C609.428 235.603 609.428 234.73 609.428 233.792L604.493 248.379H602.176L597.205 233.792V234.318C597.205 234.74 597.214 235.387 597.233 236.25C597.251 237.113 597.261 237.751 597.261 238.164V248.37H595.028V231.091H595.019Z" fill="white"/>
<path d="M623.808 231.091H626.453L632.729 248.379H630.168L628.414 243.201H621.576L619.699 248.379H617.298L623.808 231.091ZM627.654 241.297L625.028 233.661L622.242 241.297H627.654Z" fill="white"/>
<path d="M647.579 231.091H654.586C656.969 231.091 658.807 231.935 660.121 233.623C661.293 235.143 661.875 237.094 661.875 239.477C661.875 241.316 661.528 242.976 660.843 244.458C659.624 247.075 657.532 248.389 654.567 248.389H647.588V231.091H647.579ZM654.117 246.381C654.905 246.381 655.562 246.297 656.068 246.137C656.978 245.828 657.729 245.246 658.301 244.374C658.761 243.679 659.098 242.779 659.305 241.691C659.427 241.043 659.483 240.434 659.483 239.88C659.483 237.741 659.061 236.072 658.207 234.89C657.353 233.708 655.984 233.117 654.089 233.117H649.933V246.4H654.117V246.381Z" fill="white"/>
<path d="M668.723 231.091H681.33V233.211H671.002V238.464H680.552V240.462H671.002V246.325H681.499V248.389H668.723V231.091Z" fill="white"/>
<path d="M698.985 236.447V234.824C700.514 234.674 701.583 234.43 702.184 234.074C702.784 233.717 703.244 232.901 703.535 231.597H705.214V248.388H702.953V236.447H698.985Z" fill="white"/>
<path d="M729.557 231.091H732.202L738.478 248.379H735.907L734.153 243.201H727.315L725.438 248.379H723.037L729.557 231.091ZM733.412 241.297L730.785 233.661L727.999 241.297H733.412Z" fill="white"/>
<path d="M744.228 231.091H746.995L755.729 245.096V231.091H757.952V248.379H755.325L746.46 234.383V248.379H744.228V231.091ZM751.836 227.488C752.051 227.582 752.258 227.657 752.436 227.714C752.614 227.77 752.802 227.798 752.989 227.798C753.43 227.798 753.74 227.657 753.927 227.385C754.031 227.235 754.096 227.01 754.143 226.71H755.381C755.213 227.704 754.903 228.389 754.434 228.774C753.965 229.149 753.458 229.336 752.896 229.336C752.727 229.336 752.502 229.308 752.239 229.243C751.976 229.177 751.732 229.111 751.535 229.027L750.907 228.802C750.541 228.67 750.241 228.567 750.006 228.502C749.772 228.436 749.547 228.398 749.331 228.398C749.059 228.398 748.834 228.492 748.656 228.67C748.477 228.849 748.355 229.13 748.299 229.496H747.145C747.248 228.877 747.417 228.37 747.652 227.976C748.102 227.254 748.759 226.897 749.641 226.897C749.903 226.897 750.203 226.935 750.532 227.019C750.851 227.094 751.282 227.245 751.836 227.488Z" fill="white"/>
<path d="M779.499 233.558C780.644 235.087 781.216 237.047 781.216 239.43C781.216 242.01 780.559 244.158 779.246 245.865C777.707 247.873 775.512 248.876 772.661 248.876C769.997 248.876 767.905 247.995 766.385 246.24C765.025 244.542 764.349 242.404 764.349 239.815C764.349 237.479 764.931 235.471 766.094 233.811C767.586 231.672 769.79 230.612 772.708 230.612C775.775 230.612 778.036 231.597 779.499 233.558ZM777.435 244.571C778.355 243.088 778.814 241.391 778.814 239.468C778.814 237.432 778.28 235.8 777.22 234.561C776.16 233.323 774.706 232.704 772.858 232.704C771.066 232.704 769.612 233.314 768.477 234.543C767.342 235.772 766.779 237.582 766.779 239.974C766.779 241.888 767.267 243.501 768.233 244.815C769.199 246.128 770.775 246.784 772.952 246.784C775.025 246.794 776.516 246.053 777.435 244.571Z" fill="white"/>
</svg>
